G04 DipTrace 3.2.0.1*
G04 TopSilk.gbr*
%MOIN*%
G04 #@! TF.FileFunction,Legend,Top*
G04 #@! TF.Part,Single*
%ADD26C,0.00772*%
%FSLAX26Y26*%
G04*
G70*
G90*
G75*
G01*
G04 TopSilk*
%LPD*%
X1562347Y1709812D2*
D26*
X1559970Y1714566D1*
X1555162Y1719374D1*
X1550409Y1721751D1*
X1540847D1*
X1536039Y1719374D1*
X1531285Y1714566D1*
X1528854Y1709812D1*
X1526477Y1702627D1*
Y1690634D1*
X1528854Y1683504D1*
X1531285Y1678696D1*
X1536039Y1673942D1*
X1540847Y1671511D1*
X1550409D1*
X1555162Y1673942D1*
X1559970Y1678696D1*
X1562347Y1683504D1*
X1577786Y1690634D2*
X1606471D1*
Y1695442D1*
X1604094Y1700251D1*
X1601718Y1702627D1*
X1596909Y1705004D1*
X1589724D1*
X1584971Y1702627D1*
X1580163Y1697819D1*
X1577786Y1690634D1*
Y1685881D1*
X1580163Y1678696D1*
X1584971Y1673942D1*
X1589724Y1671511D1*
X1596909D1*
X1601718Y1673942D1*
X1606471Y1678696D1*
X1621910Y1705004D2*
Y1671511D1*
Y1695442D2*
X1629095Y1702627D1*
X1633904Y1705004D1*
X1641034D1*
X1645842Y1702627D1*
X1648219Y1695442D1*
Y1671511D1*
X1670843Y1721751D2*
Y1681072D1*
X1673219Y1673942D1*
X1678028Y1671511D1*
X1682781D1*
X1663658Y1705004D2*
X1680405D1*
X1698220Y1690634D2*
X1726905D1*
Y1695442D1*
X1724529Y1700251D1*
X1722152Y1702627D1*
X1717344Y1705004D1*
X1710159D1*
X1705405Y1702627D1*
X1700597Y1697819D1*
X1698220Y1690634D1*
Y1685881D1*
X1700597Y1678696D1*
X1705405Y1673942D1*
X1710159Y1671511D1*
X1717344D1*
X1722152Y1673942D1*
X1726905Y1678696D1*
X1742344Y1705004D2*
Y1671511D1*
Y1690634D2*
X1744776Y1697819D1*
X1749530Y1702627D1*
X1754338Y1705004D1*
X1761523D1*
X2257475Y2195442D2*
X2279030D1*
X2286159Y2197819D1*
X2288591Y2200251D1*
X2290968Y2205004D1*
Y2212189D1*
X2288591Y2216942D1*
X2286159Y2219374D1*
X2279030Y2221751D1*
X2257475D1*
Y2171511D1*
X2335092Y2205004D2*
Y2171511D1*
Y2197819D2*
X2330339Y2202627D1*
X2325530Y2205004D1*
X2318401D1*
X2313592Y2202627D1*
X2308839Y2197819D1*
X2306407Y2190634D1*
Y2185881D1*
X2308839Y2178696D1*
X2313592Y2173942D1*
X2318401Y2171511D1*
X2325530D1*
X2330339Y2173942D1*
X2335092Y2178696D1*
X2379216Y2221751D2*
Y2171511D1*
Y2197819D2*
X2374463Y2202627D1*
X2369655Y2205004D1*
X2362470D1*
X2357716Y2202627D1*
X2352908Y2197819D1*
X2350531Y2190634D1*
Y2185881D1*
X2352908Y2178696D1*
X2357716Y2173942D1*
X2362470Y2171511D1*
X2369655D1*
X2374463Y2173942D1*
X2379216Y2178696D1*
X2418587Y2171511D2*
Y2221695D1*
X2394655Y2188257D1*
X2430525D1*
X2258691Y2095442D2*
X2280246D1*
X2287375Y2097819D1*
X2289807Y2100251D1*
X2292184Y2105004D1*
Y2112189D1*
X2289807Y2116942D1*
X2287375Y2119374D1*
X2280246Y2121751D1*
X2258691D1*
Y2071511D1*
X2336308Y2105004D2*
Y2071511D1*
Y2097819D2*
X2331555Y2102627D1*
X2326746Y2105004D1*
X2319617D1*
X2314808Y2102627D1*
X2310055Y2097819D1*
X2307623Y2090634D1*
Y2085881D1*
X2310055Y2078696D1*
X2314808Y2073942D1*
X2319617Y2071511D1*
X2326746D1*
X2331555Y2073942D1*
X2336308Y2078696D1*
X2380432Y2121751D2*
Y2071511D1*
Y2097819D2*
X2375679Y2102627D1*
X2370871Y2105004D1*
X2363685D1*
X2358932Y2102627D1*
X2354124Y2097819D1*
X2351747Y2090634D1*
Y2085881D1*
X2354124Y2078696D1*
X2358932Y2073942D1*
X2363685Y2071511D1*
X2370871D1*
X2375679Y2073942D1*
X2380432Y2078696D1*
X2407810Y2121695D2*
X2400680Y2119319D1*
X2398248Y2114566D1*
Y2109757D1*
X2400680Y2105004D1*
X2405433Y2102572D1*
X2414995Y2100196D1*
X2422180Y2097819D1*
X2426933Y2093010D1*
X2429309Y2088257D1*
Y2081072D1*
X2426933Y2076319D1*
X2424556Y2073887D1*
X2417371Y2071511D1*
X2407810D1*
X2400680Y2073887D1*
X2398248Y2076319D1*
X2395871Y2081072D1*
Y2088257D1*
X2398248Y2093010D1*
X2403056Y2097819D1*
X2410186Y2100196D1*
X2419748Y2102572D1*
X2424556Y2105004D1*
X2426933Y2109757D1*
Y2114566D1*
X2424556Y2119319D1*
X2417371Y2121695D1*
X2407810D1*
X2243758Y1995442D2*
X2265313D1*
X2272443Y1997819D1*
X2274875Y2000251D1*
X2277252Y2005004D1*
Y2012189D1*
X2274875Y2016942D1*
X2272443Y2019374D1*
X2265313Y2021751D1*
X2243758D1*
Y1971511D1*
X2321376Y2005004D2*
Y1971511D1*
Y1997819D2*
X2316623Y2002627D1*
X2311814Y2005004D1*
X2304684D1*
X2299876Y2002627D1*
X2295123Y1997819D1*
X2292691Y1990634D1*
Y1985881D1*
X2295123Y1978696D1*
X2299876Y1973942D1*
X2304684Y1971511D1*
X2311814D1*
X2316623Y1973942D1*
X2321376Y1978696D1*
X2365500Y2021751D2*
Y1971511D1*
Y1997819D2*
X2360747Y2002627D1*
X2355938Y2005004D1*
X2348753D1*
X2344000Y2002627D1*
X2339192Y1997819D1*
X2336815Y1990634D1*
Y1985881D1*
X2339192Y1978696D1*
X2344000Y1973942D1*
X2348753Y1971511D1*
X2355938D1*
X2360747Y1973942D1*
X2365500Y1978696D1*
X2380939Y2012134D2*
X2385748Y2014566D1*
X2392933Y2021695D1*
Y1971511D1*
X2432304D2*
Y2021695D1*
X2408372Y1988257D1*
X2444242D1*
X2246162Y1895442D2*
X2267718D1*
X2274847Y1897819D1*
X2277279Y1900251D1*
X2279656Y1905004D1*
Y1912189D1*
X2277279Y1916942D1*
X2274847Y1919374D1*
X2267718Y1921751D1*
X2246162D1*
Y1871511D1*
X2323780Y1905004D2*
Y1871511D1*
Y1897819D2*
X2319027Y1902627D1*
X2314218Y1905004D1*
X2307089D1*
X2302280Y1902627D1*
X2297527Y1897819D1*
X2295095Y1890634D1*
Y1885881D1*
X2297527Y1878696D1*
X2302280Y1873942D1*
X2307089Y1871511D1*
X2314218D1*
X2319027Y1873942D1*
X2323780Y1878696D1*
X2367904Y1921751D2*
Y1871511D1*
Y1897819D2*
X2363151Y1902627D1*
X2358342Y1905004D1*
X2351157D1*
X2346404Y1902627D1*
X2341596Y1897819D1*
X2339219Y1890634D1*
Y1885881D1*
X2341596Y1878696D1*
X2346404Y1873942D1*
X2351157Y1871511D1*
X2358342D1*
X2363151Y1873942D1*
X2367904Y1878696D1*
X2383343Y1912134D2*
X2388152Y1914566D1*
X2395337Y1921695D1*
Y1871511D1*
X2439461Y1914566D2*
X2437084Y1919319D1*
X2429899Y1921695D1*
X2425146D1*
X2417961Y1919319D1*
X2413153Y1912134D1*
X2410776Y1900196D1*
Y1888257D1*
X2413153Y1878696D1*
X2417961Y1873887D1*
X2425146Y1871511D1*
X2427523D1*
X2434652Y1873887D1*
X2439461Y1878696D1*
X2441838Y1885881D1*
Y1888257D1*
X2439461Y1895442D1*
X2434652Y1900196D1*
X2427523Y1902572D1*
X2425146D1*
X2417961Y1900196D1*
X2413153Y1895442D1*
X2410776Y1888257D1*
X2244947Y1795442D2*
X2266502D1*
X2273631Y1797819D1*
X2276063Y1800251D1*
X2278440Y1805004D1*
Y1812189D1*
X2276063Y1816942D1*
X2273631Y1819374D1*
X2266502Y1821751D1*
X2244947D1*
Y1771511D1*
X2322564Y1805004D2*
Y1771511D1*
Y1797819D2*
X2317811Y1802627D1*
X2313002Y1805004D1*
X2305873D1*
X2301064Y1802627D1*
X2296311Y1797819D1*
X2293879Y1790634D1*
Y1785881D1*
X2296311Y1778696D1*
X2301064Y1773942D1*
X2305873Y1771511D1*
X2313002D1*
X2317811Y1773942D1*
X2322564Y1778696D1*
X2366688Y1821751D2*
Y1771511D1*
Y1797819D2*
X2361935Y1802627D1*
X2357127Y1805004D1*
X2349941D1*
X2345188Y1802627D1*
X2340380Y1797819D1*
X2338003Y1790634D1*
Y1785881D1*
X2340380Y1778696D1*
X2345188Y1773942D1*
X2349941Y1771511D1*
X2357127D1*
X2361935Y1773942D1*
X2366688Y1778696D1*
X2382127Y1812134D2*
X2386936Y1814566D1*
X2394121Y1821695D1*
Y1771511D1*
X2419122D2*
X2443053Y1821695D1*
X2409560D1*
X2244974Y1695442D2*
X2266529D1*
X2273659Y1697819D1*
X2276091Y1700251D1*
X2278468Y1705004D1*
Y1712189D1*
X2276091Y1716942D1*
X2273659Y1719374D1*
X2266529Y1721751D1*
X2244974D1*
Y1671511D1*
X2322592Y1705004D2*
Y1671511D1*
Y1697819D2*
X2317838Y1702627D1*
X2313030Y1705004D1*
X2305900D1*
X2301092Y1702627D1*
X2296339Y1697819D1*
X2293907Y1690634D1*
Y1685881D1*
X2296339Y1678696D1*
X2301092Y1673942D1*
X2305900Y1671511D1*
X2313030D1*
X2317838Y1673942D1*
X2322592Y1678696D1*
X2366716Y1721751D2*
Y1671511D1*
Y1697819D2*
X2361963Y1702627D1*
X2357154Y1705004D1*
X2349969D1*
X2345216Y1702627D1*
X2340407Y1697819D1*
X2338031Y1690634D1*
Y1685881D1*
X2340407Y1678696D1*
X2345216Y1673942D1*
X2349969Y1671511D1*
X2357154D1*
X2361963Y1673942D1*
X2366716Y1678696D1*
X2382155Y1712134D2*
X2386963Y1714566D1*
X2394149Y1721695D1*
Y1671511D1*
X2421526Y1721695D2*
X2414396Y1719319D1*
X2411964Y1714566D1*
Y1709757D1*
X2414396Y1705004D1*
X2419149Y1702572D1*
X2428711Y1700196D1*
X2435896Y1697819D1*
X2440649Y1693010D1*
X2443026Y1688257D1*
Y1681072D1*
X2440649Y1676319D1*
X2438273Y1673887D1*
X2431088Y1671511D1*
X2421526D1*
X2414396Y1673887D1*
X2411964Y1676319D1*
X2409588Y1681072D1*
Y1688257D1*
X2411964Y1693010D1*
X2416773Y1697819D1*
X2423903Y1700196D1*
X2433464Y1702572D1*
X2438273Y1705004D1*
X2440649Y1709757D1*
Y1714566D1*
X2438273Y1719319D1*
X2431088Y1721695D1*
X2421526D1*
X2246135Y1595442D2*
X2267690D1*
X2274820Y1597819D1*
X2277252Y1600251D1*
X2279628Y1605004D1*
Y1612189D1*
X2277252Y1616942D1*
X2274820Y1619374D1*
X2267690Y1621751D1*
X2246135D1*
Y1571511D1*
X2323752Y1605004D2*
Y1571511D1*
Y1597819D2*
X2318999Y1602627D1*
X2314191Y1605004D1*
X2307061D1*
X2302252Y1602627D1*
X2297499Y1597819D1*
X2295067Y1590634D1*
Y1585881D1*
X2297499Y1578696D1*
X2302252Y1573942D1*
X2307061Y1571511D1*
X2314191D1*
X2318999Y1573942D1*
X2323752Y1578696D1*
X2367876Y1621751D2*
Y1571511D1*
Y1597819D2*
X2363123Y1602627D1*
X2358315Y1605004D1*
X2351130D1*
X2346377Y1602627D1*
X2341568Y1597819D1*
X2339192Y1590634D1*
Y1585881D1*
X2341568Y1578696D1*
X2346377Y1573942D1*
X2351130Y1571511D1*
X2358315D1*
X2363123Y1573942D1*
X2367876Y1578696D1*
X2383316Y1612134D2*
X2388124Y1614566D1*
X2395309Y1621695D1*
Y1571511D1*
X2441865Y1605004D2*
X2439433Y1597819D1*
X2434680Y1593010D1*
X2427495Y1590634D1*
X2425118D1*
X2417933Y1593010D1*
X2413180Y1597819D1*
X2410748Y1605004D1*
Y1607381D1*
X2413180Y1614566D1*
X2417933Y1619319D1*
X2425118Y1621695D1*
X2427495D1*
X2434680Y1619319D1*
X2439433Y1614566D1*
X2441865Y1605004D1*
Y1593010D1*
X2439433Y1581072D1*
X2434680Y1573887D1*
X2427495Y1571511D1*
X2422742D1*
X2415557Y1573887D1*
X2413180Y1578696D1*
X2234197Y1495442D2*
X2255752D1*
X2262882Y1497819D1*
X2265313Y1500251D1*
X2267690Y1505004D1*
Y1512189D1*
X2265313Y1516942D1*
X2262882Y1519374D1*
X2255752Y1521751D1*
X2234197D1*
Y1471511D1*
X2311814Y1505004D2*
Y1471511D1*
Y1497819D2*
X2307061Y1502627D1*
X2302252Y1505004D1*
X2295123D1*
X2290314Y1502627D1*
X2285561Y1497819D1*
X2283129Y1490634D1*
Y1485881D1*
X2285561Y1478696D1*
X2290314Y1473942D1*
X2295123Y1471511D1*
X2302252D1*
X2307061Y1473942D1*
X2311814Y1478696D1*
X2355938Y1521751D2*
Y1471511D1*
Y1497819D2*
X2351185Y1502627D1*
X2346377Y1505004D1*
X2339192D1*
X2334438Y1502627D1*
X2329630Y1497819D1*
X2327253Y1490634D1*
Y1485881D1*
X2329630Y1478696D1*
X2334438Y1473942D1*
X2339192Y1471511D1*
X2346377D1*
X2351185Y1473942D1*
X2355938Y1478696D1*
X2373809Y1509757D2*
Y1512134D1*
X2376186Y1516942D1*
X2378563Y1519319D1*
X2383371Y1521695D1*
X2392933D1*
X2397686Y1519319D1*
X2400062Y1516942D1*
X2402494Y1512134D1*
Y1507381D1*
X2400062Y1502572D1*
X2395309Y1495442D1*
X2371377Y1471511D1*
X2404871D1*
X2434680Y1521695D2*
X2427495Y1519319D1*
X2422687Y1512134D1*
X2420310Y1500196D1*
Y1493010D1*
X2422687Y1481072D1*
X2427495Y1473887D1*
X2434680Y1471511D1*
X2439433D1*
X2446618Y1473887D1*
X2451372Y1481072D1*
X2453803Y1493010D1*
Y1500196D1*
X2451372Y1512134D1*
X2446618Y1519319D1*
X2439433Y1521695D1*
X2434680D1*
X2451372Y1512134D2*
X2422687Y1481072D1*
X2244947Y1395441D2*
X2266502D1*
X2273631Y1397818D1*
X2276063Y1400249D1*
X2278440Y1405003D1*
Y1412188D1*
X2276063Y1416941D1*
X2273631Y1419373D1*
X2266502Y1421749D1*
X2244947D1*
Y1371509D1*
X2322564Y1405003D2*
Y1371509D1*
Y1397818D2*
X2317811Y1402626D1*
X2313002Y1405003D1*
X2305873D1*
X2301064Y1402626D1*
X2296311Y1397818D1*
X2293879Y1390633D1*
Y1385879D1*
X2296311Y1378694D1*
X2301064Y1373941D1*
X2305873Y1371509D1*
X2313002D1*
X2317811Y1373941D1*
X2322564Y1378694D1*
X2366688Y1421749D2*
Y1371509D1*
Y1397818D2*
X2361935Y1402626D1*
X2357127Y1405003D1*
X2349941D1*
X2345188Y1402626D1*
X2340380Y1397818D1*
X2338003Y1390633D1*
Y1385879D1*
X2340380Y1378694D1*
X2345188Y1373941D1*
X2349941Y1371509D1*
X2357127D1*
X2361935Y1373941D1*
X2366688Y1378694D1*
X2384559Y1409756D2*
Y1412132D1*
X2386936Y1416941D1*
X2389312Y1419317D1*
X2394121Y1421694D1*
X2403683D1*
X2408436Y1419317D1*
X2410812Y1416941D1*
X2413244Y1412132D1*
Y1407379D1*
X2410812Y1402571D1*
X2406059Y1395441D1*
X2382127Y1371509D1*
X2415621D1*
X2431060Y1412132D2*
X2435868Y1414564D1*
X2443053Y1421694D1*
Y1371509D1*
X2234197Y1295442D2*
X2255752D1*
X2262882Y1297819D1*
X2265313Y1300251D1*
X2267690Y1305004D1*
Y1312189D1*
X2265313Y1316942D1*
X2262882Y1319374D1*
X2255752Y1321751D1*
X2234197D1*
Y1271511D1*
X2311814Y1305004D2*
Y1271511D1*
Y1297819D2*
X2307061Y1302627D1*
X2302252Y1305004D1*
X2295123D1*
X2290314Y1302627D1*
X2285561Y1297819D1*
X2283129Y1290634D1*
Y1285881D1*
X2285561Y1278696D1*
X2290314Y1273942D1*
X2295123Y1271511D1*
X2302252D1*
X2307061Y1273942D1*
X2311814Y1278696D1*
X2355938Y1321751D2*
Y1271511D1*
Y1297819D2*
X2351185Y1302627D1*
X2346377Y1305004D1*
X2339192D1*
X2334438Y1302627D1*
X2329630Y1297819D1*
X2327253Y1290634D1*
Y1285881D1*
X2329630Y1278696D1*
X2334438Y1273942D1*
X2339192Y1271511D1*
X2346377D1*
X2351185Y1273942D1*
X2355938Y1278696D1*
X2373809Y1309757D2*
Y1312134D1*
X2376186Y1316942D1*
X2378563Y1319319D1*
X2383371Y1321695D1*
X2392933D1*
X2397686Y1319319D1*
X2400062Y1316942D1*
X2402494Y1312134D1*
Y1307381D1*
X2400062Y1302572D1*
X2395309Y1295442D1*
X2371377Y1271511D1*
X2404871D1*
X2422742Y1309757D2*
Y1312134D1*
X2425118Y1316942D1*
X2427495Y1319319D1*
X2432304Y1321695D1*
X2441865D1*
X2446618Y1319319D1*
X2448995Y1316942D1*
X2451427Y1312134D1*
Y1307381D1*
X2448995Y1302572D1*
X2444242Y1295442D1*
X2420310Y1271511D1*
X2453803D1*
X371669Y1695442D2*
X393224D1*
X400353Y1697819D1*
X402785Y1700251D1*
X405162Y1705004D1*
Y1712189D1*
X402785Y1716942D1*
X400353Y1719374D1*
X393224Y1721751D1*
X371669D1*
Y1671511D1*
X449286Y1705004D2*
Y1671511D1*
Y1697819D2*
X444533Y1702627D1*
X439724Y1705004D1*
X432595D1*
X427786Y1702627D1*
X423033Y1697819D1*
X420601Y1690634D1*
Y1685881D1*
X423033Y1678696D1*
X427786Y1673942D1*
X432595Y1671511D1*
X439724D1*
X444533Y1673942D1*
X449286Y1678696D1*
X493410Y1721751D2*
Y1671511D1*
Y1697819D2*
X488657Y1702627D1*
X483849Y1705004D1*
X476663D1*
X471910Y1702627D1*
X467102Y1697819D1*
X464725Y1690634D1*
Y1685881D1*
X467102Y1678696D1*
X471910Y1673942D1*
X476663Y1671511D1*
X483849D1*
X488657Y1673942D1*
X493410Y1678696D1*
X508849Y1712134D2*
X513658Y1714566D1*
X520843Y1721695D1*
Y1671511D1*
X550652Y1721695D2*
X543467Y1719319D1*
X538659Y1712134D1*
X536282Y1700196D1*
Y1693010D1*
X538659Y1681072D1*
X543467Y1673887D1*
X550652Y1671511D1*
X555405D1*
X562590Y1673887D1*
X567344Y1681072D1*
X569775Y1693010D1*
Y1700196D1*
X567344Y1712134D1*
X562590Y1719319D1*
X555405Y1721695D1*
X550652D1*
X567344Y1712134D2*
X538659Y1681072D1*
X616331Y1705004D2*
X613900Y1697819D1*
X609146Y1693010D1*
X601961Y1690634D1*
X599585D1*
X592400Y1693010D1*
X587647Y1697819D1*
X585215Y1705004D1*
Y1707381D1*
X587647Y1714566D1*
X592400Y1719319D1*
X599585Y1721695D1*
X601961D1*
X609146Y1719319D1*
X613900Y1714566D1*
X616331Y1705004D1*
Y1693010D1*
X613900Y1681072D1*
X609146Y1673887D1*
X601961Y1671511D1*
X597208D1*
X590023Y1673887D1*
X587647Y1678696D1*
X381230Y1795442D2*
X402785D1*
X409915Y1797819D1*
X412347Y1800251D1*
X414724Y1805004D1*
Y1812189D1*
X412347Y1816942D1*
X409915Y1819374D1*
X402785Y1821751D1*
X381230D1*
Y1771511D1*
X458848Y1805004D2*
Y1771511D1*
Y1797819D2*
X454094Y1802627D1*
X449286Y1805004D1*
X442156D1*
X437348Y1802627D1*
X432595Y1797819D1*
X430163Y1790634D1*
Y1785881D1*
X432595Y1778696D1*
X437348Y1773942D1*
X442156Y1771511D1*
X449286D1*
X454094Y1773942D1*
X458848Y1778696D1*
X502972Y1821751D2*
Y1771511D1*
Y1797819D2*
X498219Y1802627D1*
X493410Y1805004D1*
X486225D1*
X481472Y1802627D1*
X476663Y1797819D1*
X474287Y1790634D1*
Y1785881D1*
X476663Y1778696D1*
X481472Y1773942D1*
X486225Y1771511D1*
X493410D1*
X498219Y1773942D1*
X502972Y1778696D1*
X518411Y1812134D2*
X523219Y1814566D1*
X530405Y1821695D1*
Y1771511D1*
X545844Y1812134D2*
X550652Y1814566D1*
X557837Y1821695D1*
Y1771511D1*
X587647Y1821695D2*
X580462Y1819319D1*
X575653Y1812134D1*
X573276Y1800196D1*
Y1793010D1*
X575653Y1781072D1*
X580462Y1773887D1*
X587647Y1771511D1*
X592400D1*
X599585Y1773887D1*
X604338Y1781072D1*
X606770Y1793010D1*
Y1800196D1*
X604338Y1812134D1*
X599585Y1819319D1*
X592400Y1821695D1*
X587647D1*
X604338Y1812134D2*
X575653Y1781072D1*
X391980Y1595442D2*
X413535D1*
X420665Y1597819D1*
X423097Y1600251D1*
X425473Y1605004D1*
Y1612189D1*
X423097Y1616942D1*
X420665Y1619374D1*
X413535Y1621751D1*
X391980D1*
Y1571511D1*
X469598Y1605004D2*
Y1571511D1*
Y1597819D2*
X464844Y1602627D1*
X460036Y1605004D1*
X452906D1*
X448098Y1602627D1*
X443345Y1597819D1*
X440913Y1590634D1*
Y1585881D1*
X443345Y1578696D1*
X448098Y1573942D1*
X452906Y1571511D1*
X460036D1*
X464844Y1573942D1*
X469598Y1578696D1*
X513722Y1621751D2*
Y1571511D1*
Y1597819D2*
X508969Y1602627D1*
X504160Y1605004D1*
X496975D1*
X492222Y1602627D1*
X487413Y1597819D1*
X485037Y1590634D1*
Y1585881D1*
X487413Y1578696D1*
X492222Y1573942D1*
X496975Y1571511D1*
X504160D1*
X508969Y1573942D1*
X513722Y1578696D1*
X529161Y1612134D2*
X533969Y1614566D1*
X541154Y1621695D1*
Y1571511D1*
X556594Y1612134D2*
X561402Y1614566D1*
X568587Y1621695D1*
Y1571511D1*
X584026Y1612134D2*
X588835Y1614566D1*
X596020Y1621695D1*
Y1571511D1*
X2681230Y1695442D2*
X2702785D1*
X2709915Y1697819D1*
X2712347Y1700251D1*
X2714724Y1705004D1*
Y1712189D1*
X2712347Y1716942D1*
X2709915Y1719374D1*
X2702785Y1721751D1*
X2681230D1*
Y1671511D1*
X2758848Y1705004D2*
Y1671511D1*
Y1697819D2*
X2754094Y1702627D1*
X2749286Y1705004D1*
X2742156D1*
X2737348Y1702627D1*
X2732595Y1697819D1*
X2730163Y1690634D1*
Y1685881D1*
X2732595Y1678696D1*
X2737348Y1673942D1*
X2742156Y1671511D1*
X2749286D1*
X2754094Y1673942D1*
X2758848Y1678696D1*
X2802972Y1721751D2*
Y1671511D1*
Y1697819D2*
X2798219Y1702627D1*
X2793410Y1705004D1*
X2786225D1*
X2781472Y1702627D1*
X2776663Y1697819D1*
X2774287Y1690634D1*
Y1685881D1*
X2776663Y1678696D1*
X2781472Y1673942D1*
X2786225Y1671511D1*
X2793410D1*
X2798219Y1673942D1*
X2802972Y1678696D1*
X2818411Y1712134D2*
X2823219Y1714566D1*
X2830405Y1721695D1*
Y1671511D1*
X2845844Y1712134D2*
X2850652Y1714566D1*
X2857837Y1721695D1*
Y1671511D1*
X2875708Y1709757D2*
Y1712134D1*
X2878085Y1716942D1*
X2880462Y1719319D1*
X2885270Y1721695D1*
X2894832D1*
X2899585Y1719319D1*
X2901961Y1716942D1*
X2904393Y1712134D1*
Y1707381D1*
X2901961Y1702572D1*
X2897208Y1695442D1*
X2873276Y1671511D1*
X2906770D1*
X2681230Y1795442D2*
X2702785D1*
X2709915Y1797819D1*
X2712347Y1800251D1*
X2714724Y1805004D1*
Y1812189D1*
X2712347Y1816942D1*
X2709915Y1819374D1*
X2702785Y1821751D1*
X2681230D1*
Y1771511D1*
X2758848Y1805004D2*
Y1771511D1*
Y1797819D2*
X2754094Y1802627D1*
X2749286Y1805004D1*
X2742156D1*
X2737348Y1802627D1*
X2732595Y1797819D1*
X2730163Y1790634D1*
Y1785881D1*
X2732595Y1778696D1*
X2737348Y1773942D1*
X2742156Y1771511D1*
X2749286D1*
X2754094Y1773942D1*
X2758848Y1778696D1*
X2802972Y1821751D2*
Y1771511D1*
Y1797819D2*
X2798219Y1802627D1*
X2793410Y1805004D1*
X2786225D1*
X2781472Y1802627D1*
X2776663Y1797819D1*
X2774287Y1790634D1*
Y1785881D1*
X2776663Y1778696D1*
X2781472Y1773942D1*
X2786225Y1771511D1*
X2793410D1*
X2798219Y1773942D1*
X2802972Y1778696D1*
X2818411Y1812134D2*
X2823219Y1814566D1*
X2830405Y1821695D1*
Y1771511D1*
X2845844Y1812134D2*
X2850652Y1814566D1*
X2857837Y1821695D1*
Y1771511D1*
X2878085Y1821695D2*
X2904338D1*
X2890023Y1802572D1*
X2897208D1*
X2901961Y1800196D1*
X2904338Y1797819D1*
X2906770Y1790634D1*
Y1785881D1*
X2904338Y1778696D1*
X2899585Y1773887D1*
X2892400Y1771511D1*
X2885215D1*
X2878085Y1773887D1*
X2875708Y1776319D1*
X2873276Y1781072D1*
X2680042Y1595442D2*
X2701597D1*
X2708727Y1597819D1*
X2711159Y1600251D1*
X2713535Y1605004D1*
Y1612189D1*
X2711159Y1616942D1*
X2708727Y1619374D1*
X2701597Y1621751D1*
X2680042D1*
Y1571511D1*
X2757659Y1605004D2*
Y1571511D1*
Y1597819D2*
X2752906Y1602627D1*
X2748098Y1605004D1*
X2740968D1*
X2736159Y1602627D1*
X2731406Y1597819D1*
X2728974Y1590634D1*
Y1585881D1*
X2731406Y1578696D1*
X2736159Y1573942D1*
X2740968Y1571511D1*
X2748098D1*
X2752906Y1573942D1*
X2757659Y1578696D1*
X2801783Y1621751D2*
Y1571511D1*
Y1597819D2*
X2797030Y1602627D1*
X2792222Y1605004D1*
X2785037D1*
X2780284Y1602627D1*
X2775475Y1597819D1*
X2773099Y1590634D1*
Y1585881D1*
X2775475Y1578696D1*
X2780284Y1573942D1*
X2785037Y1571511D1*
X2792222D1*
X2797030Y1573942D1*
X2801783Y1578696D1*
X2817223Y1612134D2*
X2822031Y1614566D1*
X2829216Y1621695D1*
Y1571511D1*
X2844655Y1612134D2*
X2849464Y1614566D1*
X2856649Y1621695D1*
Y1571511D1*
X2896020D2*
Y1621695D1*
X2872088Y1588257D1*
X2907958D1*
X681230Y2845442D2*
X702785D1*
X709915Y2847819D1*
X712347Y2850251D1*
X714724Y2855004D1*
Y2862189D1*
X712347Y2866942D1*
X709915Y2869374D1*
X702785Y2871751D1*
X681230D1*
Y2821511D1*
X758848Y2855004D2*
Y2821511D1*
Y2847819D2*
X754094Y2852627D1*
X749286Y2855004D1*
X742156D1*
X737348Y2852627D1*
X732595Y2847819D1*
X730163Y2840634D1*
Y2835881D1*
X732595Y2828696D1*
X737348Y2823942D1*
X742156Y2821511D1*
X749286D1*
X754094Y2823942D1*
X758848Y2828696D1*
X802972Y2871751D2*
Y2821511D1*
Y2847819D2*
X798219Y2852627D1*
X793410Y2855004D1*
X786225D1*
X781472Y2852627D1*
X776663Y2847819D1*
X774287Y2840634D1*
Y2835881D1*
X776663Y2828696D1*
X781472Y2823942D1*
X786225Y2821511D1*
X793410D1*
X798219Y2823942D1*
X802972Y2828696D1*
X818411Y2862134D2*
X823219Y2864566D1*
X830405Y2871695D1*
Y2821511D1*
X850652Y2871695D2*
X876905D1*
X862590Y2852572D1*
X869775D1*
X874529Y2850196D1*
X876905Y2847819D1*
X879337Y2840634D1*
Y2835881D1*
X876905Y2828696D1*
X872152Y2823887D1*
X864967Y2821511D1*
X857782D1*
X850652Y2823887D1*
X848276Y2826319D1*
X845844Y2831072D1*
X894776Y2862134D2*
X899585Y2864566D1*
X906770Y2871695D1*
Y2821511D1*
X670480Y2745442D2*
X692035D1*
X699165Y2747819D1*
X701597Y2750251D1*
X703974Y2755004D1*
Y2762189D1*
X701597Y2766942D1*
X699165Y2769374D1*
X692035Y2771751D1*
X670480D1*
Y2721511D1*
X748098Y2755004D2*
Y2721511D1*
Y2747819D2*
X743345Y2752627D1*
X738536Y2755004D1*
X731406D1*
X726598Y2752627D1*
X721845Y2747819D1*
X719413Y2740634D1*
Y2735881D1*
X721845Y2728696D1*
X726598Y2723942D1*
X731406Y2721511D1*
X738536D1*
X743345Y2723942D1*
X748098Y2728696D1*
X792222Y2771751D2*
Y2721511D1*
Y2747819D2*
X787469Y2752627D1*
X782660Y2755004D1*
X775475D1*
X770722Y2752627D1*
X765914Y2747819D1*
X763537Y2740634D1*
Y2735881D1*
X765914Y2728696D1*
X770722Y2723942D1*
X775475Y2721511D1*
X782660D1*
X787469Y2723942D1*
X792222Y2728696D1*
X807661Y2762134D2*
X812470Y2764566D1*
X819655Y2771695D1*
Y2721511D1*
X839902Y2771695D2*
X866155D1*
X851841Y2752572D1*
X859026D1*
X863779Y2750196D1*
X866155Y2747819D1*
X868587Y2740634D1*
Y2735881D1*
X866155Y2728696D1*
X861402Y2723887D1*
X854217Y2721511D1*
X847032D1*
X839902Y2723887D1*
X837526Y2726319D1*
X835094Y2731072D1*
X886458Y2759757D2*
Y2762134D1*
X888835Y2766942D1*
X891211Y2769319D1*
X896020Y2771695D1*
X905582D1*
X910335Y2769319D1*
X912711Y2766942D1*
X915143Y2762134D1*
Y2757381D1*
X912711Y2752572D1*
X907958Y2745442D1*
X884026Y2721511D1*
X917520D1*
X670480Y2645442D2*
X692035D1*
X699165Y2647819D1*
X701597Y2650251D1*
X703974Y2655004D1*
Y2662189D1*
X701597Y2666942D1*
X699165Y2669374D1*
X692035Y2671751D1*
X670480D1*
Y2621511D1*
X748098Y2655004D2*
Y2621511D1*
Y2647819D2*
X743345Y2652627D1*
X738536Y2655004D1*
X731406D1*
X726598Y2652627D1*
X721845Y2647819D1*
X719413Y2640634D1*
Y2635881D1*
X721845Y2628696D1*
X726598Y2623942D1*
X731406Y2621511D1*
X738536D1*
X743345Y2623942D1*
X748098Y2628696D1*
X792222Y2671751D2*
Y2621511D1*
Y2647819D2*
X787469Y2652627D1*
X782660Y2655004D1*
X775475D1*
X770722Y2652627D1*
X765914Y2647819D1*
X763537Y2640634D1*
Y2635881D1*
X765914Y2628696D1*
X770722Y2623942D1*
X775475Y2621511D1*
X782660D1*
X787469Y2623942D1*
X792222Y2628696D1*
X807661Y2662134D2*
X812470Y2664566D1*
X819655Y2671695D1*
Y2621511D1*
X839902Y2671695D2*
X866155D1*
X851841Y2652572D1*
X859026D1*
X863779Y2650196D1*
X866155Y2647819D1*
X868587Y2640634D1*
Y2635881D1*
X866155Y2628696D1*
X861402Y2623887D1*
X854217Y2621511D1*
X847032D1*
X839902Y2623887D1*
X837526Y2626319D1*
X835094Y2631072D1*
X888835Y2671695D2*
X915088D1*
X900773Y2652572D1*
X907958D1*
X912711Y2650196D1*
X915088Y2647819D1*
X917520Y2640634D1*
Y2635881D1*
X915088Y2628696D1*
X910335Y2623887D1*
X903150Y2621511D1*
X895965D1*
X888835Y2623887D1*
X886458Y2626319D1*
X884026Y2631072D1*
X669292Y2545442D2*
X690847D1*
X697977Y2547819D1*
X700409Y2550251D1*
X702785Y2555004D1*
Y2562189D1*
X700409Y2566942D1*
X697977Y2569374D1*
X690847Y2571751D1*
X669292D1*
Y2521511D1*
X746909Y2555004D2*
Y2521511D1*
Y2547819D2*
X742156Y2552627D1*
X737348Y2555004D1*
X730218D1*
X725410Y2552627D1*
X720656Y2547819D1*
X718225Y2540634D1*
Y2535881D1*
X720656Y2528696D1*
X725410Y2523942D1*
X730218Y2521511D1*
X737348D1*
X742156Y2523942D1*
X746909Y2528696D1*
X791034Y2571751D2*
Y2521511D1*
Y2547819D2*
X786280Y2552627D1*
X781472Y2555004D1*
X774287D1*
X769534Y2552627D1*
X764725Y2547819D1*
X762349Y2540634D1*
Y2535881D1*
X764725Y2528696D1*
X769534Y2523942D1*
X774287Y2521511D1*
X781472D1*
X786280Y2523942D1*
X791034Y2528696D1*
X806473Y2562134D2*
X811281Y2564566D1*
X818466Y2571695D1*
Y2521511D1*
X838714Y2571695D2*
X864967D1*
X850652Y2552572D1*
X857837D1*
X862590Y2550196D1*
X864967Y2547819D1*
X867399Y2540634D1*
Y2535881D1*
X864967Y2528696D1*
X860214Y2523887D1*
X853029Y2521511D1*
X845844D1*
X838714Y2523887D1*
X836337Y2526319D1*
X833906Y2531072D1*
X906770Y2521511D2*
Y2571695D1*
X882838Y2538257D1*
X918708D1*
X670480Y2445442D2*
X692035D1*
X699165Y2447819D1*
X701597Y2450251D1*
X703974Y2455004D1*
Y2462189D1*
X701597Y2466942D1*
X699165Y2469374D1*
X692035Y2471751D1*
X670480D1*
Y2421511D1*
X748098Y2455004D2*
Y2421511D1*
Y2447819D2*
X743345Y2452627D1*
X738536Y2455004D1*
X731406D1*
X726598Y2452627D1*
X721845Y2447819D1*
X719413Y2440634D1*
Y2435881D1*
X721845Y2428696D1*
X726598Y2423942D1*
X731406Y2421511D1*
X738536D1*
X743345Y2423942D1*
X748098Y2428696D1*
X792222Y2471751D2*
Y2421511D1*
Y2447819D2*
X787469Y2452627D1*
X782660Y2455004D1*
X775475D1*
X770722Y2452627D1*
X765914Y2447819D1*
X763537Y2440634D1*
Y2435881D1*
X765914Y2428696D1*
X770722Y2423942D1*
X775475Y2421511D1*
X782660D1*
X787469Y2423942D1*
X792222Y2428696D1*
X807661Y2462134D2*
X812470Y2464566D1*
X819655Y2471695D1*
Y2421511D1*
X839902Y2471695D2*
X866155D1*
X851841Y2452572D1*
X859026D1*
X863779Y2450196D1*
X866155Y2447819D1*
X868587Y2440634D1*
Y2435881D1*
X866155Y2428696D1*
X861402Y2423887D1*
X854217Y2421511D1*
X847032D1*
X839902Y2423887D1*
X837526Y2426319D1*
X835094Y2431072D1*
X912711Y2471695D2*
X888835D1*
X886458Y2450196D1*
X888835Y2452572D1*
X896020Y2455004D1*
X903150D1*
X910335Y2452572D1*
X915143Y2447819D1*
X917520Y2440634D1*
Y2435881D1*
X915143Y2428696D1*
X910335Y2423887D1*
X903150Y2421511D1*
X896020D1*
X888835Y2423887D1*
X886458Y2426319D1*
X884026Y2431072D1*
X671696Y2345442D2*
X693251D1*
X700381Y2347819D1*
X702813Y2350251D1*
X705190Y2355004D1*
Y2362189D1*
X702813Y2366942D1*
X700381Y2369374D1*
X693251Y2371751D1*
X671696D1*
Y2321511D1*
X749314Y2355004D2*
Y2321511D1*
Y2347819D2*
X744560Y2352627D1*
X739752Y2355004D1*
X732622D1*
X727814Y2352627D1*
X723061Y2347819D1*
X720629Y2340634D1*
Y2335881D1*
X723061Y2328696D1*
X727814Y2323942D1*
X732622Y2321511D1*
X739752D1*
X744560Y2323942D1*
X749314Y2328696D1*
X793438Y2371751D2*
Y2321511D1*
Y2347819D2*
X788685Y2352627D1*
X783876Y2355004D1*
X776691D1*
X771938Y2352627D1*
X767129Y2347819D1*
X764753Y2340634D1*
Y2335881D1*
X767129Y2328696D1*
X771938Y2323942D1*
X776691Y2321511D1*
X783876D1*
X788685Y2323942D1*
X793438Y2328696D1*
X808877Y2362134D2*
X813685Y2364566D1*
X820871Y2371695D1*
Y2321511D1*
X841118Y2371695D2*
X867371D1*
X853056Y2352572D1*
X860241D1*
X864995Y2350196D1*
X867371Y2347819D1*
X869803Y2340634D1*
Y2335881D1*
X867371Y2328696D1*
X862618Y2323887D1*
X855433Y2321511D1*
X848248D1*
X841118Y2323887D1*
X838742Y2326319D1*
X836310Y2331072D1*
X913927Y2364566D2*
X911551Y2369319D1*
X904366Y2371695D1*
X899612D1*
X892427Y2369319D1*
X887619Y2362134D1*
X885242Y2350196D1*
Y2338257D1*
X887619Y2328696D1*
X892427Y2323887D1*
X899612Y2321511D1*
X901989D1*
X909119Y2323887D1*
X913927Y2328696D1*
X916304Y2335881D1*
Y2338257D1*
X913927Y2345442D1*
X909119Y2350196D1*
X901989Y2352572D1*
X899612D1*
X892427Y2350196D1*
X887619Y2345442D1*
X885242Y2338257D1*
X670480Y2245442D2*
X692035D1*
X699165Y2247819D1*
X701597Y2250251D1*
X703974Y2255004D1*
Y2262189D1*
X701597Y2266942D1*
X699165Y2269374D1*
X692035Y2271751D1*
X670480D1*
Y2221511D1*
X748098Y2255004D2*
Y2221511D1*
Y2247819D2*
X743345Y2252627D1*
X738536Y2255004D1*
X731406D1*
X726598Y2252627D1*
X721845Y2247819D1*
X719413Y2240634D1*
Y2235881D1*
X721845Y2228696D1*
X726598Y2223942D1*
X731406Y2221511D1*
X738536D1*
X743345Y2223942D1*
X748098Y2228696D1*
X792222Y2271751D2*
Y2221511D1*
Y2247819D2*
X787469Y2252627D1*
X782660Y2255004D1*
X775475D1*
X770722Y2252627D1*
X765914Y2247819D1*
X763537Y2240634D1*
Y2235881D1*
X765914Y2228696D1*
X770722Y2223942D1*
X775475Y2221511D1*
X782660D1*
X787469Y2223942D1*
X792222Y2228696D1*
X807661Y2262134D2*
X812470Y2264566D1*
X819655Y2271695D1*
Y2221511D1*
X839902Y2271695D2*
X866155D1*
X851841Y2252572D1*
X859026D1*
X863779Y2250196D1*
X866155Y2247819D1*
X868587Y2240634D1*
Y2235881D1*
X866155Y2228696D1*
X861402Y2223887D1*
X854217Y2221511D1*
X847032D1*
X839902Y2223887D1*
X837526Y2226319D1*
X835094Y2231072D1*
X893588Y2221511D2*
X917520Y2271695D1*
X884026D1*
X670508Y2145442D2*
X692063D1*
X699193Y2147819D1*
X701625Y2150251D1*
X704001Y2155004D1*
Y2162189D1*
X701625Y2166942D1*
X699193Y2169374D1*
X692063Y2171751D1*
X670508D1*
Y2121511D1*
X748125Y2155004D2*
Y2121511D1*
Y2147819D2*
X743372Y2152627D1*
X738564Y2155004D1*
X731434D1*
X726626Y2152627D1*
X721872Y2147819D1*
X719440Y2140634D1*
Y2135881D1*
X721872Y2128696D1*
X726626Y2123942D1*
X731434Y2121511D1*
X738564D1*
X743372Y2123942D1*
X748125Y2128696D1*
X792249Y2171751D2*
Y2121511D1*
Y2147819D2*
X787496Y2152627D1*
X782688Y2155004D1*
X775503D1*
X770750Y2152627D1*
X765941Y2147819D1*
X763565Y2140634D1*
Y2135881D1*
X765941Y2128696D1*
X770750Y2123942D1*
X775503Y2121511D1*
X782688D1*
X787496Y2123942D1*
X792249Y2128696D1*
X807689Y2162134D2*
X812497Y2164566D1*
X819682Y2171695D1*
Y2121511D1*
X839930Y2171695D2*
X866183D1*
X851868Y2152572D1*
X859053D1*
X863806Y2150196D1*
X866183Y2147819D1*
X868615Y2140634D1*
Y2135881D1*
X866183Y2128696D1*
X861430Y2123887D1*
X854245Y2121511D1*
X847060D1*
X839930Y2123887D1*
X837553Y2126319D1*
X835121Y2131072D1*
X895992Y2171695D2*
X888863Y2169319D1*
X886431Y2164566D1*
Y2159757D1*
X888863Y2155004D1*
X893616Y2152572D1*
X903177Y2150196D1*
X910362Y2147819D1*
X915116Y2143010D1*
X917492Y2138257D1*
Y2131072D1*
X915116Y2126319D1*
X912739Y2123887D1*
X905554Y2121511D1*
X895992D1*
X888863Y2123887D1*
X886431Y2126319D1*
X884054Y2131072D1*
Y2138257D1*
X886431Y2143010D1*
X891239Y2147819D1*
X898369Y2150196D1*
X907930Y2152572D1*
X912739Y2155004D1*
X915116Y2159757D1*
Y2164566D1*
X912739Y2169319D1*
X905554Y2171695D1*
X895992D1*
X671669Y2045442D2*
X693224D1*
X700353Y2047819D1*
X702785Y2050251D1*
X705162Y2055004D1*
Y2062189D1*
X702785Y2066942D1*
X700353Y2069374D1*
X693224Y2071751D1*
X671669D1*
Y2021511D1*
X749286Y2055004D2*
Y2021511D1*
Y2047819D2*
X744533Y2052627D1*
X739724Y2055004D1*
X732595D1*
X727786Y2052627D1*
X723033Y2047819D1*
X720601Y2040634D1*
Y2035881D1*
X723033Y2028696D1*
X727786Y2023942D1*
X732595Y2021511D1*
X739724D1*
X744533Y2023942D1*
X749286Y2028696D1*
X793410Y2071751D2*
Y2021511D1*
Y2047819D2*
X788657Y2052627D1*
X783849Y2055004D1*
X776663D1*
X771910Y2052627D1*
X767102Y2047819D1*
X764725Y2040634D1*
Y2035881D1*
X767102Y2028696D1*
X771910Y2023942D1*
X776663Y2021511D1*
X783849D1*
X788657Y2023942D1*
X793410Y2028696D1*
X808849Y2062134D2*
X813658Y2064566D1*
X820843Y2071695D1*
Y2021511D1*
X841091Y2071695D2*
X867344D1*
X853029Y2052572D1*
X860214D1*
X864967Y2050196D1*
X867344Y2047819D1*
X869775Y2040634D1*
Y2035881D1*
X867344Y2028696D1*
X862590Y2023887D1*
X855405Y2021511D1*
X848220D1*
X841091Y2023887D1*
X838714Y2026319D1*
X836282Y2031072D1*
X916331Y2055004D2*
X913900Y2047819D1*
X909146Y2043010D1*
X901961Y2040634D1*
X899585D1*
X892400Y2043010D1*
X887647Y2047819D1*
X885215Y2055004D1*
Y2057381D1*
X887647Y2064566D1*
X892400Y2069319D1*
X899585Y2071695D1*
X901961D1*
X909146Y2069319D1*
X913900Y2064566D1*
X916331Y2055004D1*
Y2043010D1*
X913900Y2031072D1*
X909146Y2023887D1*
X901961Y2021511D1*
X897208D1*
X890023Y2023887D1*
X887647Y2028696D1*
X669292Y1945442D2*
X690847D1*
X697977Y1947819D1*
X700409Y1950251D1*
X702785Y1955004D1*
Y1962189D1*
X700409Y1966942D1*
X697977Y1969374D1*
X690847Y1971751D1*
X669292D1*
Y1921511D1*
X746909Y1955004D2*
Y1921511D1*
Y1947819D2*
X742156Y1952627D1*
X737348Y1955004D1*
X730218D1*
X725410Y1952627D1*
X720656Y1947819D1*
X718225Y1940634D1*
Y1935881D1*
X720656Y1928696D1*
X725410Y1923942D1*
X730218Y1921511D1*
X737348D1*
X742156Y1923942D1*
X746909Y1928696D1*
X791034Y1971751D2*
Y1921511D1*
Y1947819D2*
X786280Y1952627D1*
X781472Y1955004D1*
X774287D1*
X769534Y1952627D1*
X764725Y1947819D1*
X762349Y1940634D1*
Y1935881D1*
X764725Y1928696D1*
X769534Y1923942D1*
X774287Y1921511D1*
X781472D1*
X786280Y1923942D1*
X791034Y1928696D1*
X806473Y1962134D2*
X811281Y1964566D1*
X818466Y1971695D1*
Y1921511D1*
X857837D2*
Y1971695D1*
X833906Y1938257D1*
X869775D1*
X899585Y1971695D2*
X892400Y1969319D1*
X887591Y1962134D1*
X885215Y1950196D1*
Y1943010D1*
X887591Y1931072D1*
X892400Y1923887D1*
X899585Y1921511D1*
X904338D1*
X911523Y1923887D1*
X916276Y1931072D1*
X918708Y1943010D1*
Y1950196D1*
X916276Y1962134D1*
X911523Y1969319D1*
X904338Y1971695D1*
X899585D1*
X916276Y1962134D2*
X887591Y1931072D1*
X680042Y1845442D2*
X701597D1*
X708727Y1847819D1*
X711159Y1850251D1*
X713535Y1855004D1*
Y1862189D1*
X711159Y1866942D1*
X708727Y1869374D1*
X701597Y1871751D1*
X680042D1*
Y1821511D1*
X757659Y1855004D2*
Y1821511D1*
Y1847819D2*
X752906Y1852627D1*
X748098Y1855004D1*
X740968D1*
X736159Y1852627D1*
X731406Y1847819D1*
X728974Y1840634D1*
Y1835881D1*
X731406Y1828696D1*
X736159Y1823942D1*
X740968Y1821511D1*
X748098D1*
X752906Y1823942D1*
X757659Y1828696D1*
X801783Y1871751D2*
Y1821511D1*
Y1847819D2*
X797030Y1852627D1*
X792222Y1855004D1*
X785037D1*
X780284Y1852627D1*
X775475Y1847819D1*
X773099Y1840634D1*
Y1835881D1*
X775475Y1828696D1*
X780284Y1823942D1*
X785037Y1821511D1*
X792222D1*
X797030Y1823942D1*
X801783Y1828696D1*
X817223Y1862134D2*
X822031Y1864566D1*
X829216Y1871695D1*
Y1821511D1*
X868587D2*
Y1871695D1*
X844655Y1838257D1*
X880525D1*
X895965Y1862134D2*
X900773Y1864566D1*
X907958Y1871695D1*
Y1821511D1*
X669292Y1745442D2*
X690847D1*
X697977Y1747819D1*
X700409Y1750251D1*
X702785Y1755004D1*
Y1762189D1*
X700409Y1766942D1*
X697977Y1769374D1*
X690847Y1771751D1*
X669292D1*
Y1721511D1*
X746909Y1755004D2*
Y1721511D1*
Y1747819D2*
X742156Y1752627D1*
X737348Y1755004D1*
X730218D1*
X725410Y1752627D1*
X720656Y1747819D1*
X718225Y1740634D1*
Y1735881D1*
X720656Y1728696D1*
X725410Y1723942D1*
X730218Y1721511D1*
X737348D1*
X742156Y1723942D1*
X746909Y1728696D1*
X791034Y1771751D2*
Y1721511D1*
Y1747819D2*
X786280Y1752627D1*
X781472Y1755004D1*
X774287D1*
X769534Y1752627D1*
X764725Y1747819D1*
X762349Y1740634D1*
Y1735881D1*
X764725Y1728696D1*
X769534Y1723942D1*
X774287Y1721511D1*
X781472D1*
X786280Y1723942D1*
X791034Y1728696D1*
X806473Y1762134D2*
X811281Y1764566D1*
X818466Y1771695D1*
Y1721511D1*
X857837D2*
Y1771695D1*
X833906Y1738257D1*
X869775D1*
X887647Y1759757D2*
Y1762134D1*
X890023Y1766942D1*
X892400Y1769319D1*
X897208Y1771695D1*
X906770D1*
X911523Y1769319D1*
X913900Y1766942D1*
X916331Y1762134D1*
Y1757381D1*
X913900Y1752572D1*
X909146Y1745442D1*
X885215Y1721511D1*
X918708D1*
X669292Y1645442D2*
X690847D1*
X697977Y1647819D1*
X700409Y1650251D1*
X702785Y1655004D1*
Y1662189D1*
X700409Y1666942D1*
X697977Y1669374D1*
X690847Y1671751D1*
X669292D1*
Y1621511D1*
X746909Y1655004D2*
Y1621511D1*
Y1647819D2*
X742156Y1652627D1*
X737348Y1655004D1*
X730218D1*
X725410Y1652627D1*
X720656Y1647819D1*
X718225Y1640634D1*
Y1635881D1*
X720656Y1628696D1*
X725410Y1623942D1*
X730218Y1621511D1*
X737348D1*
X742156Y1623942D1*
X746909Y1628696D1*
X791034Y1671751D2*
Y1621511D1*
Y1647819D2*
X786280Y1652627D1*
X781472Y1655004D1*
X774287D1*
X769534Y1652627D1*
X764725Y1647819D1*
X762349Y1640634D1*
Y1635881D1*
X764725Y1628696D1*
X769534Y1623942D1*
X774287Y1621511D1*
X781472D1*
X786280Y1623942D1*
X791034Y1628696D1*
X806473Y1662134D2*
X811281Y1664566D1*
X818466Y1671695D1*
Y1621511D1*
X857837D2*
Y1671695D1*
X833906Y1638257D1*
X869775D1*
X890023Y1671695D2*
X916276D1*
X901961Y1652572D1*
X909146D1*
X913900Y1650196D1*
X916276Y1647819D1*
X918708Y1640634D1*
Y1635881D1*
X916276Y1628696D1*
X911523Y1623887D1*
X904338Y1621511D1*
X897153D1*
X890023Y1623887D1*
X887647Y1626319D1*
X885215Y1631072D1*
X668104Y1545442D2*
X689659D1*
X696789Y1547819D1*
X699220Y1550251D1*
X701597Y1555004D1*
Y1562189D1*
X699220Y1566942D1*
X696789Y1569374D1*
X689659Y1571751D1*
X668104D1*
Y1521511D1*
X745721Y1555004D2*
Y1521511D1*
Y1547819D2*
X740968Y1552627D1*
X736159Y1555004D1*
X729030D1*
X724221Y1552627D1*
X719468Y1547819D1*
X717036Y1540634D1*
Y1535881D1*
X719468Y1528696D1*
X724221Y1523942D1*
X729030Y1521511D1*
X736159D1*
X740968Y1523942D1*
X745721Y1528696D1*
X789845Y1571751D2*
Y1521511D1*
Y1547819D2*
X785092Y1552627D1*
X780284Y1555004D1*
X773099D1*
X768345Y1552627D1*
X763537Y1547819D1*
X761160Y1540634D1*
Y1535881D1*
X763537Y1528696D1*
X768345Y1523942D1*
X773099Y1521511D1*
X780284D1*
X785092Y1523942D1*
X789845Y1528696D1*
X805285Y1562134D2*
X810093Y1564566D1*
X817278Y1571695D1*
Y1521511D1*
X856649D2*
Y1571695D1*
X832717Y1538257D1*
X868587D1*
X907958Y1521511D2*
Y1571695D1*
X884026Y1538257D1*
X919896D1*
X669292Y1445441D2*
X690847D1*
X697977Y1447818D1*
X700409Y1450249D1*
X702785Y1455003D1*
Y1462188D1*
X700409Y1466941D1*
X697977Y1469373D1*
X690847Y1471749D1*
X669292D1*
Y1421509D1*
X746909Y1455003D2*
Y1421509D1*
Y1447818D2*
X742156Y1452626D1*
X737348Y1455003D1*
X730218D1*
X725410Y1452626D1*
X720656Y1447818D1*
X718225Y1440633D1*
Y1435879D1*
X720656Y1428694D1*
X725410Y1423941D1*
X730218Y1421509D1*
X737348D1*
X742156Y1423941D1*
X746909Y1428694D1*
X791034Y1471749D2*
Y1421509D1*
Y1447818D2*
X786280Y1452626D1*
X781472Y1455003D1*
X774287D1*
X769534Y1452626D1*
X764725Y1447818D1*
X762349Y1440633D1*
Y1435879D1*
X764725Y1428694D1*
X769534Y1423941D1*
X774287Y1421509D1*
X781472D1*
X786280Y1423941D1*
X791034Y1428694D1*
X806473Y1462132D2*
X811281Y1464564D1*
X818466Y1471694D1*
Y1421509D1*
X857837D2*
Y1471694D1*
X833906Y1438256D1*
X869775D1*
X913900Y1471694D2*
X890023D1*
X887647Y1450194D1*
X890023Y1452571D1*
X897208Y1455003D1*
X904338D1*
X911523Y1452571D1*
X916331Y1447818D1*
X918708Y1440633D1*
Y1435879D1*
X916331Y1428694D1*
X911523Y1423886D1*
X904338Y1421509D1*
X897208D1*
X890023Y1423886D1*
X887647Y1426318D1*
X885215Y1431071D1*
X670508Y1345442D2*
X692063D1*
X699193Y1347819D1*
X701625Y1350251D1*
X704001Y1355004D1*
Y1362189D1*
X701625Y1366942D1*
X699193Y1369374D1*
X692063Y1371751D1*
X670508D1*
Y1321511D1*
X748125Y1355004D2*
Y1321511D1*
Y1347819D2*
X743372Y1352627D1*
X738564Y1355004D1*
X731434D1*
X726626Y1352627D1*
X721872Y1347819D1*
X719440Y1340634D1*
Y1335881D1*
X721872Y1328696D1*
X726626Y1323942D1*
X731434Y1321511D1*
X738564D1*
X743372Y1323942D1*
X748125Y1328696D1*
X792249Y1371751D2*
Y1321511D1*
Y1347819D2*
X787496Y1352627D1*
X782688Y1355004D1*
X775503D1*
X770750Y1352627D1*
X765941Y1347819D1*
X763565Y1340634D1*
Y1335881D1*
X765941Y1328696D1*
X770750Y1323942D1*
X775503Y1321511D1*
X782688D1*
X787496Y1323942D1*
X792249Y1328696D1*
X807689Y1362134D2*
X812497Y1364566D1*
X819682Y1371695D1*
Y1321511D1*
X859053D2*
Y1371695D1*
X835121Y1338257D1*
X870991D1*
X915116Y1364566D2*
X912739Y1369319D1*
X905554Y1371695D1*
X900801D1*
X893616Y1369319D1*
X888807Y1362134D1*
X886431Y1350196D1*
Y1338257D1*
X888807Y1328696D1*
X893616Y1323887D1*
X900801Y1321511D1*
X903177D1*
X910307Y1323887D1*
X915116Y1328696D1*
X917492Y1335881D1*
Y1338257D1*
X915116Y1345442D1*
X910307Y1350196D1*
X903177Y1352572D1*
X900801D1*
X893616Y1350196D1*
X888807Y1345442D1*
X886431Y1338257D1*
X669292Y1245442D2*
X690847D1*
X697977Y1247819D1*
X700409Y1250251D1*
X702785Y1255004D1*
Y1262189D1*
X700409Y1266942D1*
X697977Y1269374D1*
X690847Y1271751D1*
X669292D1*
Y1221511D1*
X746909Y1255004D2*
Y1221511D1*
Y1247819D2*
X742156Y1252627D1*
X737348Y1255004D1*
X730218D1*
X725410Y1252627D1*
X720656Y1247819D1*
X718225Y1240634D1*
Y1235881D1*
X720656Y1228696D1*
X725410Y1223942D1*
X730218Y1221511D1*
X737348D1*
X742156Y1223942D1*
X746909Y1228696D1*
X791034Y1271751D2*
Y1221511D1*
Y1247819D2*
X786280Y1252627D1*
X781472Y1255004D1*
X774287D1*
X769534Y1252627D1*
X764725Y1247819D1*
X762349Y1240634D1*
Y1235881D1*
X764725Y1228696D1*
X769534Y1223942D1*
X774287Y1221511D1*
X781472D1*
X786280Y1223942D1*
X791034Y1228696D1*
X806473Y1262134D2*
X811281Y1264566D1*
X818466Y1271695D1*
Y1221511D1*
X857837D2*
Y1271695D1*
X833906Y1238257D1*
X869775D1*
X894776Y1221511D2*
X918708Y1271695D1*
X885215D1*
X669320Y1145441D2*
X690875D1*
X698004Y1147818D1*
X700436Y1150249D1*
X702813Y1155003D1*
Y1162188D1*
X700436Y1166941D1*
X698004Y1169373D1*
X690875Y1171749D1*
X669320D1*
Y1121509D1*
X746937Y1155003D2*
Y1121509D1*
Y1147818D2*
X742184Y1152626D1*
X737375Y1155003D1*
X730246D1*
X725437Y1152626D1*
X720684Y1147818D1*
X718252Y1140633D1*
Y1135879D1*
X720684Y1128694D1*
X725437Y1123941D1*
X730246Y1121509D1*
X737375D1*
X742184Y1123941D1*
X746937Y1128694D1*
X791061Y1171749D2*
Y1121509D1*
Y1147818D2*
X786308Y1152626D1*
X781500Y1155003D1*
X774315D1*
X769561Y1152626D1*
X764753Y1147818D1*
X762376Y1140633D1*
Y1135879D1*
X764753Y1128694D1*
X769561Y1123941D1*
X774315Y1121509D1*
X781500D1*
X786308Y1123941D1*
X791061Y1128694D1*
X806500Y1162132D2*
X811309Y1164564D1*
X818494Y1171694D1*
Y1121509D1*
X857865D2*
Y1171694D1*
X833933Y1138256D1*
X869803D1*
X897181Y1171694D2*
X890051Y1169317D1*
X887619Y1164564D1*
Y1159756D1*
X890051Y1155003D1*
X894804Y1152571D1*
X904366Y1150194D1*
X911551Y1147818D1*
X916304Y1143009D1*
X918680Y1138256D1*
Y1131071D1*
X916304Y1126318D1*
X913927Y1123886D1*
X906742Y1121509D1*
X897181D1*
X890051Y1123886D1*
X887619Y1126318D1*
X885242Y1131071D1*
Y1138256D1*
X887619Y1143009D1*
X892427Y1147818D1*
X899557Y1150194D1*
X909119Y1152571D1*
X913927Y1155003D1*
X916304Y1159756D1*
Y1164564D1*
X913927Y1169317D1*
X906742Y1171694D1*
X897181D1*
X670480Y1045442D2*
X692035D1*
X699165Y1047819D1*
X701597Y1050251D1*
X703974Y1055004D1*
Y1062189D1*
X701597Y1066942D1*
X699165Y1069374D1*
X692035Y1071751D1*
X670480D1*
Y1021511D1*
X748098Y1055004D2*
Y1021511D1*
Y1047819D2*
X743345Y1052627D1*
X738536Y1055004D1*
X731406D1*
X726598Y1052627D1*
X721845Y1047819D1*
X719413Y1040634D1*
Y1035881D1*
X721845Y1028696D1*
X726598Y1023942D1*
X731406Y1021511D1*
X738536D1*
X743345Y1023942D1*
X748098Y1028696D1*
X792222Y1071751D2*
Y1021511D1*
Y1047819D2*
X787469Y1052627D1*
X782660Y1055004D1*
X775475D1*
X770722Y1052627D1*
X765914Y1047819D1*
X763537Y1040634D1*
Y1035881D1*
X765914Y1028696D1*
X770722Y1023942D1*
X775475Y1021511D1*
X782660D1*
X787469Y1023942D1*
X792222Y1028696D1*
X807661Y1062134D2*
X812470Y1064566D1*
X819655Y1071695D1*
Y1021511D1*
X859026D2*
Y1071695D1*
X835094Y1038257D1*
X870964D1*
X917520Y1055004D2*
X915088Y1047819D1*
X910335Y1043010D1*
X903150Y1040634D1*
X900773D1*
X893588Y1043010D1*
X888835Y1047819D1*
X886403Y1055004D1*
Y1057381D1*
X888835Y1064566D1*
X893588Y1069319D1*
X900773Y1071695D1*
X903150D1*
X910335Y1069319D1*
X915088Y1064566D1*
X917520Y1055004D1*
Y1043010D1*
X915088Y1031072D1*
X910335Y1023887D1*
X903150Y1021511D1*
X898396D1*
X891211Y1023887D1*
X888835Y1028696D1*
X670480Y945442D2*
X692035D1*
X699165Y947819D1*
X701597Y950251D1*
X703974Y955004D1*
Y962189D1*
X701597Y966942D1*
X699165Y969374D1*
X692035Y971751D1*
X670480D1*
Y921511D1*
X748098Y955004D2*
Y921511D1*
Y947819D2*
X743345Y952627D1*
X738536Y955004D1*
X731406D1*
X726598Y952627D1*
X721845Y947819D1*
X719413Y940634D1*
Y935881D1*
X721845Y928696D1*
X726598Y923942D1*
X731406Y921511D1*
X738536D1*
X743345Y923942D1*
X748098Y928696D1*
X792222Y971751D2*
Y921511D1*
Y947819D2*
X787469Y952627D1*
X782660Y955004D1*
X775475D1*
X770722Y952627D1*
X765914Y947819D1*
X763537Y940634D1*
Y935881D1*
X765914Y928696D1*
X770722Y923942D1*
X775475Y921511D1*
X782660D1*
X787469Y923942D1*
X792222Y928696D1*
X807661Y962134D2*
X812470Y964566D1*
X819655Y971695D1*
Y921511D1*
X863779Y971695D2*
X839902D1*
X837526Y950196D1*
X839902Y952572D1*
X847087Y955004D1*
X854217D1*
X861402Y952572D1*
X866211Y947819D1*
X868587Y940634D1*
Y935881D1*
X866211Y928696D1*
X861402Y923887D1*
X854217Y921511D1*
X847087D1*
X839902Y923887D1*
X837526Y926319D1*
X835094Y931072D1*
X898396Y971695D2*
X891211Y969319D1*
X886403Y962134D1*
X884026Y950196D1*
Y943010D1*
X886403Y931072D1*
X891211Y923887D1*
X898396Y921511D1*
X903150D1*
X910335Y923887D1*
X915088Y931072D1*
X917520Y943010D1*
Y950196D1*
X915088Y962134D1*
X910335Y969319D1*
X903150Y971695D1*
X898396D1*
X915088Y962134D2*
X886403Y931072D1*
X681230Y845441D2*
X702785D1*
X709915Y847818D1*
X712347Y850249D1*
X714724Y855003D1*
Y862188D1*
X712347Y866941D1*
X709915Y869373D1*
X702785Y871749D1*
X681230D1*
Y821509D1*
X758848Y855003D2*
Y821509D1*
Y847818D2*
X754094Y852626D1*
X749286Y855003D1*
X742156D1*
X737348Y852626D1*
X732595Y847818D1*
X730163Y840633D1*
Y835879D1*
X732595Y828694D1*
X737348Y823941D1*
X742156Y821509D1*
X749286D1*
X754094Y823941D1*
X758848Y828694D1*
X802972Y871749D2*
Y821509D1*
Y847818D2*
X798219Y852626D1*
X793410Y855003D1*
X786225D1*
X781472Y852626D1*
X776663Y847818D1*
X774287Y840633D1*
Y835879D1*
X776663Y828694D1*
X781472Y823941D1*
X786225Y821509D1*
X793410D1*
X798219Y823941D1*
X802972Y828694D1*
X818411Y862132D2*
X823219Y864564D1*
X830405Y871694D1*
Y821509D1*
X874529Y871694D2*
X850652D1*
X848276Y850194D1*
X850652Y852571D1*
X857837Y855003D1*
X864967D1*
X872152Y852571D1*
X876961Y847818D1*
X879337Y840633D1*
Y835879D1*
X876961Y828694D1*
X872152Y823886D1*
X864967Y821509D1*
X857837D1*
X850652Y823886D1*
X848276Y826318D1*
X845844Y831071D1*
X894776Y862132D2*
X899585Y864564D1*
X906770Y871694D1*
Y821509D1*
X670480Y745442D2*
X692035D1*
X699165Y747819D1*
X701597Y750251D1*
X703974Y755004D1*
Y762189D1*
X701597Y766942D1*
X699165Y769374D1*
X692035Y771751D1*
X670480D1*
Y721511D1*
X748098Y755004D2*
Y721511D1*
Y747819D2*
X743345Y752627D1*
X738536Y755004D1*
X731406D1*
X726598Y752627D1*
X721845Y747819D1*
X719413Y740634D1*
Y735881D1*
X721845Y728696D1*
X726598Y723942D1*
X731406Y721511D1*
X738536D1*
X743345Y723942D1*
X748098Y728696D1*
X792222Y771751D2*
Y721511D1*
Y747819D2*
X787469Y752627D1*
X782660Y755004D1*
X775475D1*
X770722Y752627D1*
X765914Y747819D1*
X763537Y740634D1*
Y735881D1*
X765914Y728696D1*
X770722Y723942D1*
X775475Y721511D1*
X782660D1*
X787469Y723942D1*
X792222Y728696D1*
X807661Y762134D2*
X812470Y764566D1*
X819655Y771695D1*
Y721511D1*
X863779Y771695D2*
X839902D1*
X837526Y750196D1*
X839902Y752572D1*
X847087Y755004D1*
X854217D1*
X861402Y752572D1*
X866211Y747819D1*
X868587Y740634D1*
Y735881D1*
X866211Y728696D1*
X861402Y723887D1*
X854217Y721511D1*
X847087D1*
X839902Y723887D1*
X837526Y726319D1*
X835094Y731072D1*
X886458Y759757D2*
Y762134D1*
X888835Y766942D1*
X891211Y769319D1*
X896020Y771695D1*
X905582D1*
X910335Y769319D1*
X912711Y766942D1*
X915143Y762134D1*
Y757381D1*
X912711Y752572D1*
X907958Y745442D1*
X884026Y721511D1*
X917520D1*
X670480Y645442D2*
X692035D1*
X699165Y647819D1*
X701597Y650251D1*
X703974Y655004D1*
Y662189D1*
X701597Y666942D1*
X699165Y669374D1*
X692035Y671751D1*
X670480D1*
Y621511D1*
X748098Y655004D2*
Y621511D1*
Y647819D2*
X743345Y652627D1*
X738536Y655004D1*
X731406D1*
X726598Y652627D1*
X721845Y647819D1*
X719413Y640634D1*
Y635881D1*
X721845Y628696D1*
X726598Y623942D1*
X731406Y621511D1*
X738536D1*
X743345Y623942D1*
X748098Y628696D1*
X792222Y671751D2*
Y621511D1*
Y647819D2*
X787469Y652627D1*
X782660Y655004D1*
X775475D1*
X770722Y652627D1*
X765914Y647819D1*
X763537Y640634D1*
Y635881D1*
X765914Y628696D1*
X770722Y623942D1*
X775475Y621511D1*
X782660D1*
X787469Y623942D1*
X792222Y628696D1*
X807661Y662134D2*
X812470Y664566D1*
X819655Y671695D1*
Y621511D1*
X863779Y671695D2*
X839902D1*
X837526Y650196D1*
X839902Y652572D1*
X847087Y655004D1*
X854217D1*
X861402Y652572D1*
X866211Y647819D1*
X868587Y640634D1*
Y635881D1*
X866211Y628696D1*
X861402Y623887D1*
X854217Y621511D1*
X847087D1*
X839902Y623887D1*
X837526Y626319D1*
X835094Y631072D1*
X888835Y671695D2*
X915088D1*
X900773Y652572D1*
X907958D1*
X912711Y650196D1*
X915088Y647819D1*
X917520Y640634D1*
Y635881D1*
X915088Y628696D1*
X910335Y623887D1*
X903150Y621511D1*
X895965D1*
X888835Y623887D1*
X886458Y626319D1*
X884026Y631072D1*
X670480Y545442D2*
X692035D1*
X699165Y547819D1*
X701597Y550251D1*
X703974Y555004D1*
Y562189D1*
X701597Y566942D1*
X699165Y569374D1*
X692035Y571751D1*
X670480D1*
Y521511D1*
X748098Y555004D2*
Y521511D1*
Y547819D2*
X743345Y552627D1*
X738536Y555004D1*
X731406D1*
X726598Y552627D1*
X721845Y547819D1*
X719413Y540634D1*
Y535881D1*
X721845Y528696D1*
X726598Y523942D1*
X731406Y521511D1*
X738536D1*
X743345Y523942D1*
X748098Y528696D1*
X792222Y571751D2*
Y521511D1*
Y547819D2*
X787469Y552627D1*
X782660Y555004D1*
X775475D1*
X770722Y552627D1*
X765914Y547819D1*
X763537Y540634D1*
Y535881D1*
X765914Y528696D1*
X770722Y523942D1*
X775475Y521511D1*
X782660D1*
X787469Y523942D1*
X792222Y528696D1*
X807661Y562134D2*
X812470Y564566D1*
X819655Y571695D1*
Y521511D1*
X863779Y571695D2*
X839902D1*
X837526Y550196D1*
X839902Y552572D1*
X847087Y555004D1*
X854217D1*
X861402Y552572D1*
X866211Y547819D1*
X868587Y540634D1*
Y535881D1*
X866211Y528696D1*
X861402Y523887D1*
X854217Y521511D1*
X847087D1*
X839902Y523887D1*
X837526Y526319D1*
X835094Y531072D1*
X912711Y571695D2*
X888835D1*
X886458Y550196D1*
X888835Y552572D1*
X896020Y555004D1*
X903150D1*
X910335Y552572D1*
X915143Y547819D1*
X917520Y540634D1*
Y535881D1*
X915143Y528696D1*
X910335Y523887D1*
X903150Y521511D1*
X896020D1*
X888835Y523887D1*
X886458Y526319D1*
X884026Y531072D1*
X1271696Y2845442D2*
X1293251D1*
X1300381Y2847819D1*
X1302813Y2850251D1*
X1305190Y2855004D1*
Y2862189D1*
X1302813Y2866942D1*
X1300381Y2869374D1*
X1293251Y2871751D1*
X1271696D1*
Y2821511D1*
X1349314Y2855004D2*
Y2821511D1*
Y2847819D2*
X1344560Y2852627D1*
X1339752Y2855004D1*
X1332622D1*
X1327814Y2852627D1*
X1323061Y2847819D1*
X1320629Y2840634D1*
Y2835881D1*
X1323061Y2828696D1*
X1327814Y2823942D1*
X1332622Y2821511D1*
X1339752D1*
X1344560Y2823942D1*
X1349314Y2828696D1*
X1393438Y2871751D2*
Y2821511D1*
Y2847819D2*
X1388685Y2852627D1*
X1383876Y2855004D1*
X1376691D1*
X1371938Y2852627D1*
X1367129Y2847819D1*
X1364753Y2840634D1*
Y2835881D1*
X1367129Y2828696D1*
X1371938Y2823942D1*
X1376691Y2821511D1*
X1383876D1*
X1388685Y2823942D1*
X1393438Y2828696D1*
X1408877Y2862134D2*
X1413685Y2864566D1*
X1420871Y2871695D1*
Y2821511D1*
X1464995Y2871695D2*
X1441118D1*
X1438742Y2850196D1*
X1441118Y2852572D1*
X1448303Y2855004D1*
X1455433D1*
X1462618Y2852572D1*
X1467427Y2847819D1*
X1469803Y2840634D1*
Y2835881D1*
X1467427Y2828696D1*
X1462618Y2823887D1*
X1455433Y2821511D1*
X1448303D1*
X1441118Y2823887D1*
X1438742Y2826319D1*
X1436310Y2831072D1*
X1513927Y2864566D2*
X1511551Y2869319D1*
X1504366Y2871695D1*
X1499612D1*
X1492427Y2869319D1*
X1487619Y2862134D1*
X1485242Y2850196D1*
Y2838257D1*
X1487619Y2828696D1*
X1492427Y2823887D1*
X1499612Y2821511D1*
X1501989D1*
X1509119Y2823887D1*
X1513927Y2828696D1*
X1516304Y2835881D1*
Y2838257D1*
X1513927Y2845442D1*
X1509119Y2850196D1*
X1501989Y2852572D1*
X1499612D1*
X1492427Y2850196D1*
X1487619Y2845442D1*
X1485242Y2838257D1*
X1270508Y2645442D2*
X1292063D1*
X1299193Y2647819D1*
X1301625Y2650251D1*
X1304001Y2655004D1*
Y2662189D1*
X1301625Y2666942D1*
X1299193Y2669374D1*
X1292063Y2671751D1*
X1270508D1*
Y2621511D1*
X1348125Y2655004D2*
Y2621511D1*
Y2647819D2*
X1343372Y2652627D1*
X1338564Y2655004D1*
X1331434D1*
X1326626Y2652627D1*
X1321872Y2647819D1*
X1319440Y2640634D1*
Y2635881D1*
X1321872Y2628696D1*
X1326626Y2623942D1*
X1331434Y2621511D1*
X1338564D1*
X1343372Y2623942D1*
X1348125Y2628696D1*
X1392249Y2671751D2*
Y2621511D1*
Y2647819D2*
X1387496Y2652627D1*
X1382688Y2655004D1*
X1375503D1*
X1370750Y2652627D1*
X1365941Y2647819D1*
X1363565Y2640634D1*
Y2635881D1*
X1365941Y2628696D1*
X1370750Y2623942D1*
X1375503Y2621511D1*
X1382688D1*
X1387496Y2623942D1*
X1392249Y2628696D1*
X1407689Y2662134D2*
X1412497Y2664566D1*
X1419682Y2671695D1*
Y2621511D1*
X1463806Y2671695D2*
X1439930D1*
X1437553Y2650196D1*
X1439930Y2652572D1*
X1447115Y2655004D1*
X1454245D1*
X1461430Y2652572D1*
X1466238Y2647819D1*
X1468615Y2640634D1*
Y2635881D1*
X1466238Y2628696D1*
X1461430Y2623887D1*
X1454245Y2621511D1*
X1447115D1*
X1439930Y2623887D1*
X1437553Y2626319D1*
X1435121Y2631072D1*
X1495992Y2671695D2*
X1488863Y2669319D1*
X1486431Y2664566D1*
Y2659757D1*
X1488863Y2655004D1*
X1493616Y2652572D1*
X1503177Y2650196D1*
X1510362Y2647819D1*
X1515116Y2643010D1*
X1517492Y2638257D1*
Y2631072D1*
X1515116Y2626319D1*
X1512739Y2623887D1*
X1505554Y2621511D1*
X1495992D1*
X1488863Y2623887D1*
X1486431Y2626319D1*
X1484054Y2631072D1*
Y2638257D1*
X1486431Y2643010D1*
X1491239Y2647819D1*
X1498369Y2650196D1*
X1507930Y2652572D1*
X1512739Y2655004D1*
X1515116Y2659757D1*
Y2664566D1*
X1512739Y2669319D1*
X1505554Y2671695D1*
X1495992D1*
X1271669Y2545442D2*
X1293224D1*
X1300353Y2547819D1*
X1302785Y2550251D1*
X1305162Y2555004D1*
Y2562189D1*
X1302785Y2566942D1*
X1300353Y2569374D1*
X1293224Y2571751D1*
X1271669D1*
Y2521511D1*
X1349286Y2555004D2*
Y2521511D1*
Y2547819D2*
X1344533Y2552627D1*
X1339724Y2555004D1*
X1332595D1*
X1327786Y2552627D1*
X1323033Y2547819D1*
X1320601Y2540634D1*
Y2535881D1*
X1323033Y2528696D1*
X1327786Y2523942D1*
X1332595Y2521511D1*
X1339724D1*
X1344533Y2523942D1*
X1349286Y2528696D1*
X1393410Y2571751D2*
Y2521511D1*
Y2547819D2*
X1388657Y2552627D1*
X1383849Y2555004D1*
X1376663D1*
X1371910Y2552627D1*
X1367102Y2547819D1*
X1364725Y2540634D1*
Y2535881D1*
X1367102Y2528696D1*
X1371910Y2523942D1*
X1376663Y2521511D1*
X1383849D1*
X1388657Y2523942D1*
X1393410Y2528696D1*
X1408849Y2562134D2*
X1413658Y2564566D1*
X1420843Y2571695D1*
Y2521511D1*
X1464967Y2571695D2*
X1441091D1*
X1438714Y2550196D1*
X1441091Y2552572D1*
X1448276Y2555004D1*
X1455405D1*
X1462590Y2552572D1*
X1467399Y2547819D1*
X1469775Y2540634D1*
Y2535881D1*
X1467399Y2528696D1*
X1462590Y2523887D1*
X1455405Y2521511D1*
X1448276D1*
X1441091Y2523887D1*
X1438714Y2526319D1*
X1436282Y2531072D1*
X1516331Y2555004D2*
X1513900Y2547819D1*
X1509146Y2543010D1*
X1501961Y2540634D1*
X1499585D1*
X1492400Y2543010D1*
X1487647Y2547819D1*
X1485215Y2555004D1*
Y2557381D1*
X1487647Y2564566D1*
X1492400Y2569319D1*
X1499585Y2571695D1*
X1501961D1*
X1509146Y2569319D1*
X1513900Y2564566D1*
X1516331Y2555004D1*
Y2543010D1*
X1513900Y2531072D1*
X1509146Y2523887D1*
X1501961Y2521511D1*
X1497208D1*
X1490023Y2523887D1*
X1487647Y2528696D1*
X1271696Y2445442D2*
X1293251D1*
X1300381Y2447819D1*
X1302813Y2450251D1*
X1305190Y2455004D1*
Y2462189D1*
X1302813Y2466942D1*
X1300381Y2469374D1*
X1293251Y2471751D1*
X1271696D1*
Y2421511D1*
X1349314Y2455004D2*
Y2421511D1*
Y2447819D2*
X1344560Y2452627D1*
X1339752Y2455004D1*
X1332622D1*
X1327814Y2452627D1*
X1323061Y2447819D1*
X1320629Y2440634D1*
Y2435881D1*
X1323061Y2428696D1*
X1327814Y2423942D1*
X1332622Y2421511D1*
X1339752D1*
X1344560Y2423942D1*
X1349314Y2428696D1*
X1393438Y2471751D2*
Y2421511D1*
Y2447819D2*
X1388685Y2452627D1*
X1383876Y2455004D1*
X1376691D1*
X1371938Y2452627D1*
X1367129Y2447819D1*
X1364753Y2440634D1*
Y2435881D1*
X1367129Y2428696D1*
X1371938Y2423942D1*
X1376691Y2421511D1*
X1383876D1*
X1388685Y2423942D1*
X1393438Y2428696D1*
X1408877Y2462134D2*
X1413685Y2464566D1*
X1420871Y2471695D1*
Y2421511D1*
X1464995Y2464566D2*
X1462618Y2469319D1*
X1455433Y2471695D1*
X1450680D1*
X1443495Y2469319D1*
X1438686Y2462134D1*
X1436310Y2450196D1*
Y2438257D1*
X1438686Y2428696D1*
X1443495Y2423887D1*
X1450680Y2421511D1*
X1453056D1*
X1460186Y2423887D1*
X1464995Y2428696D1*
X1467371Y2435881D1*
Y2438257D1*
X1464995Y2445442D1*
X1460186Y2450196D1*
X1453056Y2452572D1*
X1450680D1*
X1443495Y2450196D1*
X1438686Y2445442D1*
X1436310Y2438257D1*
X1497181Y2471695D2*
X1489996Y2469319D1*
X1485187Y2462134D1*
X1482810Y2450196D1*
Y2443010D1*
X1485187Y2431072D1*
X1489996Y2423887D1*
X1497181Y2421511D1*
X1501934D1*
X1509119Y2423887D1*
X1513872Y2431072D1*
X1516304Y2443010D1*
Y2450196D1*
X1513872Y2462134D1*
X1509119Y2469319D1*
X1501934Y2471695D1*
X1497181D1*
X1513872Y2462134D2*
X1485187Y2431072D1*
X1282446Y2345442D2*
X1304001D1*
X1311131Y2347819D1*
X1313563Y2350251D1*
X1315939Y2355004D1*
Y2362189D1*
X1313563Y2366942D1*
X1311131Y2369374D1*
X1304001Y2371751D1*
X1282446D1*
Y2321511D1*
X1360064Y2355004D2*
Y2321511D1*
Y2347819D2*
X1355310Y2352627D1*
X1350502Y2355004D1*
X1343372D1*
X1338564Y2352627D1*
X1333811Y2347819D1*
X1331379Y2340634D1*
Y2335881D1*
X1333811Y2328696D1*
X1338564Y2323942D1*
X1343372Y2321511D1*
X1350502D1*
X1355310Y2323942D1*
X1360064Y2328696D1*
X1404188Y2371751D2*
Y2321511D1*
Y2347819D2*
X1399435Y2352627D1*
X1394626Y2355004D1*
X1387441D1*
X1382688Y2352627D1*
X1377879Y2347819D1*
X1375503Y2340634D1*
Y2335881D1*
X1377879Y2328696D1*
X1382688Y2323942D1*
X1387441Y2321511D1*
X1394626D1*
X1399435Y2323942D1*
X1404188Y2328696D1*
X1419627Y2362134D2*
X1424435Y2364566D1*
X1431620Y2371695D1*
Y2321511D1*
X1475745Y2364566D2*
X1473368Y2369319D1*
X1466183Y2371695D1*
X1461430D1*
X1454245Y2369319D1*
X1449436Y2362134D1*
X1447060Y2350196D1*
Y2338257D1*
X1449436Y2328696D1*
X1454245Y2323887D1*
X1461430Y2321511D1*
X1463806D1*
X1470936Y2323887D1*
X1475745Y2328696D1*
X1478121Y2335881D1*
Y2338257D1*
X1475745Y2345442D1*
X1470936Y2350196D1*
X1463806Y2352572D1*
X1461430D1*
X1454245Y2350196D1*
X1449436Y2345442D1*
X1447060Y2338257D1*
X1493560Y2362134D2*
X1498369Y2364566D1*
X1505554Y2371695D1*
Y2321511D1*
X1271696Y2245442D2*
X1293251D1*
X1300381Y2247819D1*
X1302813Y2250251D1*
X1305190Y2255004D1*
Y2262189D1*
X1302813Y2266942D1*
X1300381Y2269374D1*
X1293251Y2271751D1*
X1271696D1*
Y2221511D1*
X1349314Y2255004D2*
Y2221511D1*
Y2247819D2*
X1344560Y2252627D1*
X1339752Y2255004D1*
X1332622D1*
X1327814Y2252627D1*
X1323061Y2247819D1*
X1320629Y2240634D1*
Y2235881D1*
X1323061Y2228696D1*
X1327814Y2223942D1*
X1332622Y2221511D1*
X1339752D1*
X1344560Y2223942D1*
X1349314Y2228696D1*
X1393438Y2271751D2*
Y2221511D1*
Y2247819D2*
X1388685Y2252627D1*
X1383876Y2255004D1*
X1376691D1*
X1371938Y2252627D1*
X1367129Y2247819D1*
X1364753Y2240634D1*
Y2235881D1*
X1367129Y2228696D1*
X1371938Y2223942D1*
X1376691Y2221511D1*
X1383876D1*
X1388685Y2223942D1*
X1393438Y2228696D1*
X1408877Y2262134D2*
X1413685Y2264566D1*
X1420871Y2271695D1*
Y2221511D1*
X1464995Y2264566D2*
X1462618Y2269319D1*
X1455433Y2271695D1*
X1450680D1*
X1443495Y2269319D1*
X1438686Y2262134D1*
X1436310Y2250196D1*
Y2238257D1*
X1438686Y2228696D1*
X1443495Y2223887D1*
X1450680Y2221511D1*
X1453056D1*
X1460186Y2223887D1*
X1464995Y2228696D1*
X1467371Y2235881D1*
Y2238257D1*
X1464995Y2245442D1*
X1460186Y2250196D1*
X1453056Y2252572D1*
X1450680D1*
X1443495Y2250196D1*
X1438686Y2245442D1*
X1436310Y2238257D1*
X1485242Y2259757D2*
Y2262134D1*
X1487619Y2266942D1*
X1489996Y2269319D1*
X1494804Y2271695D1*
X1504366D1*
X1509119Y2269319D1*
X1511495Y2266942D1*
X1513927Y2262134D1*
Y2257381D1*
X1511495Y2252572D1*
X1506742Y2245442D1*
X1482810Y2221511D1*
X1516304D1*
X1271696Y2145442D2*
X1293251D1*
X1300381Y2147819D1*
X1302813Y2150251D1*
X1305190Y2155004D1*
Y2162189D1*
X1302813Y2166942D1*
X1300381Y2169374D1*
X1293251Y2171751D1*
X1271696D1*
Y2121511D1*
X1349314Y2155004D2*
Y2121511D1*
Y2147819D2*
X1344560Y2152627D1*
X1339752Y2155004D1*
X1332622D1*
X1327814Y2152627D1*
X1323061Y2147819D1*
X1320629Y2140634D1*
Y2135881D1*
X1323061Y2128696D1*
X1327814Y2123942D1*
X1332622Y2121511D1*
X1339752D1*
X1344560Y2123942D1*
X1349314Y2128696D1*
X1393438Y2171751D2*
Y2121511D1*
Y2147819D2*
X1388685Y2152627D1*
X1383876Y2155004D1*
X1376691D1*
X1371938Y2152627D1*
X1367129Y2147819D1*
X1364753Y2140634D1*
Y2135881D1*
X1367129Y2128696D1*
X1371938Y2123942D1*
X1376691Y2121511D1*
X1383876D1*
X1388685Y2123942D1*
X1393438Y2128696D1*
X1408877Y2162134D2*
X1413685Y2164566D1*
X1420871Y2171695D1*
Y2121511D1*
X1464995Y2164566D2*
X1462618Y2169319D1*
X1455433Y2171695D1*
X1450680D1*
X1443495Y2169319D1*
X1438686Y2162134D1*
X1436310Y2150196D1*
Y2138257D1*
X1438686Y2128696D1*
X1443495Y2123887D1*
X1450680Y2121511D1*
X1453056D1*
X1460186Y2123887D1*
X1464995Y2128696D1*
X1467371Y2135881D1*
Y2138257D1*
X1464995Y2145442D1*
X1460186Y2150196D1*
X1453056Y2152572D1*
X1450680D1*
X1443495Y2150196D1*
X1438686Y2145442D1*
X1436310Y2138257D1*
X1487619Y2171695D2*
X1513872D1*
X1499557Y2152572D1*
X1506742D1*
X1511495Y2150196D1*
X1513872Y2147819D1*
X1516304Y2140634D1*
Y2135881D1*
X1513872Y2128696D1*
X1509119Y2123887D1*
X1501934Y2121511D1*
X1494749D1*
X1487619Y2123887D1*
X1485242Y2126319D1*
X1482810Y2131072D1*
X1270508Y2045442D2*
X1292063D1*
X1299193Y2047819D1*
X1301625Y2050251D1*
X1304001Y2055004D1*
Y2062189D1*
X1301625Y2066942D1*
X1299193Y2069374D1*
X1292063Y2071751D1*
X1270508D1*
Y2021511D1*
X1348125Y2055004D2*
Y2021511D1*
Y2047819D2*
X1343372Y2052627D1*
X1338564Y2055004D1*
X1331434D1*
X1326626Y2052627D1*
X1321872Y2047819D1*
X1319440Y2040634D1*
Y2035881D1*
X1321872Y2028696D1*
X1326626Y2023942D1*
X1331434Y2021511D1*
X1338564D1*
X1343372Y2023942D1*
X1348125Y2028696D1*
X1392249Y2071751D2*
Y2021511D1*
Y2047819D2*
X1387496Y2052627D1*
X1382688Y2055004D1*
X1375503D1*
X1370750Y2052627D1*
X1365941Y2047819D1*
X1363565Y2040634D1*
Y2035881D1*
X1365941Y2028696D1*
X1370750Y2023942D1*
X1375503Y2021511D1*
X1382688D1*
X1387496Y2023942D1*
X1392249Y2028696D1*
X1407689Y2062134D2*
X1412497Y2064566D1*
X1419682Y2071695D1*
Y2021511D1*
X1463806Y2064566D2*
X1461430Y2069319D1*
X1454245Y2071695D1*
X1449492D1*
X1442307Y2069319D1*
X1437498Y2062134D1*
X1435121Y2050196D1*
Y2038257D1*
X1437498Y2028696D1*
X1442307Y2023887D1*
X1449492Y2021511D1*
X1451868D1*
X1458998Y2023887D1*
X1463806Y2028696D1*
X1466183Y2035881D1*
Y2038257D1*
X1463806Y2045442D1*
X1458998Y2050196D1*
X1451868Y2052572D1*
X1449492D1*
X1442307Y2050196D1*
X1437498Y2045442D1*
X1435121Y2038257D1*
X1505554Y2021511D2*
Y2071695D1*
X1481622Y2038257D1*
X1517492D1*
X1271696Y1945442D2*
X1293251D1*
X1300381Y1947819D1*
X1302813Y1950251D1*
X1305190Y1955004D1*
Y1962189D1*
X1302813Y1966942D1*
X1300381Y1969374D1*
X1293251Y1971751D1*
X1271696D1*
Y1921511D1*
X1349314Y1955004D2*
Y1921511D1*
Y1947819D2*
X1344560Y1952627D1*
X1339752Y1955004D1*
X1332622D1*
X1327814Y1952627D1*
X1323061Y1947819D1*
X1320629Y1940634D1*
Y1935881D1*
X1323061Y1928696D1*
X1327814Y1923942D1*
X1332622Y1921511D1*
X1339752D1*
X1344560Y1923942D1*
X1349314Y1928696D1*
X1393438Y1971751D2*
Y1921511D1*
Y1947819D2*
X1388685Y1952627D1*
X1383876Y1955004D1*
X1376691D1*
X1371938Y1952627D1*
X1367129Y1947819D1*
X1364753Y1940634D1*
Y1935881D1*
X1367129Y1928696D1*
X1371938Y1923942D1*
X1376691Y1921511D1*
X1383876D1*
X1388685Y1923942D1*
X1393438Y1928696D1*
X1408877Y1962134D2*
X1413685Y1964566D1*
X1420871Y1971695D1*
Y1921511D1*
X1464995Y1964566D2*
X1462618Y1969319D1*
X1455433Y1971695D1*
X1450680D1*
X1443495Y1969319D1*
X1438686Y1962134D1*
X1436310Y1950196D1*
Y1938257D1*
X1438686Y1928696D1*
X1443495Y1923887D1*
X1450680Y1921511D1*
X1453056D1*
X1460186Y1923887D1*
X1464995Y1928696D1*
X1467371Y1935881D1*
Y1938257D1*
X1464995Y1945442D1*
X1460186Y1950196D1*
X1453056Y1952572D1*
X1450680D1*
X1443495Y1950196D1*
X1438686Y1945442D1*
X1436310Y1938257D1*
X1511495Y1971695D2*
X1487619D1*
X1485242Y1950196D1*
X1487619Y1952572D1*
X1494804Y1955004D1*
X1501934D1*
X1509119Y1952572D1*
X1513927Y1947819D1*
X1516304Y1940634D1*
Y1935881D1*
X1513927Y1928696D1*
X1509119Y1923887D1*
X1501934Y1921511D1*
X1494804D1*
X1487619Y1923887D1*
X1485242Y1926319D1*
X1482810Y1931072D1*
X1272912Y1845442D2*
X1294467D1*
X1301597Y1847819D1*
X1304029Y1850251D1*
X1306405Y1855004D1*
Y1862189D1*
X1304029Y1866942D1*
X1301597Y1869374D1*
X1294467Y1871751D1*
X1272912D1*
Y1821511D1*
X1350530Y1855004D2*
Y1821511D1*
Y1847819D2*
X1345776Y1852627D1*
X1340968Y1855004D1*
X1333838D1*
X1329030Y1852627D1*
X1324277Y1847819D1*
X1321845Y1840634D1*
Y1835881D1*
X1324277Y1828696D1*
X1329030Y1823942D1*
X1333838Y1821511D1*
X1340968D1*
X1345776Y1823942D1*
X1350530Y1828696D1*
X1394654Y1871751D2*
Y1821511D1*
Y1847819D2*
X1389901Y1852627D1*
X1385092Y1855004D1*
X1377907D1*
X1373154Y1852627D1*
X1368345Y1847819D1*
X1365969Y1840634D1*
Y1835881D1*
X1368345Y1828696D1*
X1373154Y1823942D1*
X1377907Y1821511D1*
X1385092D1*
X1389901Y1823942D1*
X1394654Y1828696D1*
X1410093Y1862134D2*
X1414901Y1864566D1*
X1422086Y1871695D1*
Y1821511D1*
X1466211Y1864566D2*
X1463834Y1869319D1*
X1456649Y1871695D1*
X1451896D1*
X1444711Y1869319D1*
X1439902Y1862134D1*
X1437526Y1850196D1*
Y1838257D1*
X1439902Y1828696D1*
X1444711Y1823887D1*
X1451896Y1821511D1*
X1454272D1*
X1461402Y1823887D1*
X1466211Y1828696D1*
X1468587Y1835881D1*
Y1838257D1*
X1466211Y1845442D1*
X1461402Y1850196D1*
X1454272Y1852572D1*
X1451896D1*
X1444711Y1850196D1*
X1439902Y1845442D1*
X1437526Y1838257D1*
X1512711Y1864566D2*
X1510335Y1869319D1*
X1503150Y1871695D1*
X1498396D1*
X1491211Y1869319D1*
X1486403Y1862134D1*
X1484026Y1850196D1*
Y1838257D1*
X1486403Y1828696D1*
X1491211Y1823887D1*
X1498396Y1821511D1*
X1500773D1*
X1507903Y1823887D1*
X1512711Y1828696D1*
X1515088Y1835881D1*
Y1838257D1*
X1512711Y1845442D1*
X1507903Y1850196D1*
X1500773Y1852572D1*
X1498396D1*
X1491211Y1850196D1*
X1486403Y1845442D1*
X1484026Y1838257D1*
X1271696Y1745442D2*
X1293251D1*
X1300381Y1747819D1*
X1302813Y1750251D1*
X1305190Y1755004D1*
Y1762189D1*
X1302813Y1766942D1*
X1300381Y1769374D1*
X1293251Y1771751D1*
X1271696D1*
Y1721511D1*
X1349314Y1755004D2*
Y1721511D1*
Y1747819D2*
X1344560Y1752627D1*
X1339752Y1755004D1*
X1332622D1*
X1327814Y1752627D1*
X1323061Y1747819D1*
X1320629Y1740634D1*
Y1735881D1*
X1323061Y1728696D1*
X1327814Y1723942D1*
X1332622Y1721511D1*
X1339752D1*
X1344560Y1723942D1*
X1349314Y1728696D1*
X1393438Y1771751D2*
Y1721511D1*
Y1747819D2*
X1388685Y1752627D1*
X1383876Y1755004D1*
X1376691D1*
X1371938Y1752627D1*
X1367129Y1747819D1*
X1364753Y1740634D1*
Y1735881D1*
X1367129Y1728696D1*
X1371938Y1723942D1*
X1376691Y1721511D1*
X1383876D1*
X1388685Y1723942D1*
X1393438Y1728696D1*
X1408877Y1762134D2*
X1413685Y1764566D1*
X1420871Y1771695D1*
Y1721511D1*
X1464995Y1764566D2*
X1462618Y1769319D1*
X1455433Y1771695D1*
X1450680D1*
X1443495Y1769319D1*
X1438686Y1762134D1*
X1436310Y1750196D1*
Y1738257D1*
X1438686Y1728696D1*
X1443495Y1723887D1*
X1450680Y1721511D1*
X1453056D1*
X1460186Y1723887D1*
X1464995Y1728696D1*
X1467371Y1735881D1*
Y1738257D1*
X1464995Y1745442D1*
X1460186Y1750196D1*
X1453056Y1752572D1*
X1450680D1*
X1443495Y1750196D1*
X1438686Y1745442D1*
X1436310Y1738257D1*
X1492372Y1721511D2*
X1516304Y1771695D1*
X1482810D1*
X1271724Y1645442D2*
X1293279D1*
X1300409Y1647819D1*
X1302841Y1650251D1*
X1305217Y1655004D1*
Y1662189D1*
X1302841Y1666942D1*
X1300409Y1669374D1*
X1293279Y1671751D1*
X1271724D1*
Y1621511D1*
X1349341Y1655004D2*
Y1621511D1*
Y1647819D2*
X1344588Y1652627D1*
X1339780Y1655004D1*
X1332650D1*
X1327841Y1652627D1*
X1323088Y1647819D1*
X1320656Y1640634D1*
Y1635881D1*
X1323088Y1628696D1*
X1327841Y1623942D1*
X1332650Y1621511D1*
X1339780D1*
X1344588Y1623942D1*
X1349341Y1628696D1*
X1393465Y1671751D2*
Y1621511D1*
Y1647819D2*
X1388712Y1652627D1*
X1383904Y1655004D1*
X1376719D1*
X1371966Y1652627D1*
X1367157Y1647819D1*
X1364781Y1640634D1*
Y1635881D1*
X1367157Y1628696D1*
X1371966Y1623942D1*
X1376719Y1621511D1*
X1383904D1*
X1388712Y1623942D1*
X1393465Y1628696D1*
X1408905Y1662134D2*
X1413713Y1664566D1*
X1420898Y1671695D1*
Y1621511D1*
X1465022Y1664566D2*
X1462646Y1669319D1*
X1455461Y1671695D1*
X1450707D1*
X1443522Y1669319D1*
X1438714Y1662134D1*
X1436337Y1650196D1*
Y1638257D1*
X1438714Y1628696D1*
X1443522Y1623887D1*
X1450707Y1621511D1*
X1453084D1*
X1460214Y1623887D1*
X1465022Y1628696D1*
X1467399Y1635881D1*
Y1638257D1*
X1465022Y1645442D1*
X1460214Y1650196D1*
X1453084Y1652572D1*
X1450707D1*
X1443522Y1650196D1*
X1438714Y1645442D1*
X1436337Y1638257D1*
X1494776Y1671695D2*
X1487647Y1669319D1*
X1485215Y1664566D1*
Y1659757D1*
X1487647Y1655004D1*
X1492400Y1652572D1*
X1501961Y1650196D1*
X1509146Y1647819D1*
X1513900Y1643010D1*
X1516276Y1638257D1*
Y1631072D1*
X1513900Y1626319D1*
X1511523Y1623887D1*
X1504338Y1621511D1*
X1494776D1*
X1487647Y1623887D1*
X1485215Y1626319D1*
X1482838Y1631072D1*
Y1638257D1*
X1485215Y1643010D1*
X1490023Y1647819D1*
X1497153Y1650196D1*
X1506715Y1652572D1*
X1511523Y1655004D1*
X1513900Y1659757D1*
Y1664566D1*
X1511523Y1669319D1*
X1504338Y1671695D1*
X1494776D1*
X1272884Y1545442D2*
X1294440D1*
X1301569Y1547819D1*
X1304001Y1550251D1*
X1306378Y1555004D1*
Y1562189D1*
X1304001Y1566942D1*
X1301569Y1569374D1*
X1294440Y1571751D1*
X1272884D1*
Y1521511D1*
X1350502Y1555004D2*
Y1521511D1*
Y1547819D2*
X1345749Y1552627D1*
X1340940Y1555004D1*
X1333811D1*
X1329002Y1552627D1*
X1324249Y1547819D1*
X1321817Y1540634D1*
Y1535881D1*
X1324249Y1528696D1*
X1329002Y1523942D1*
X1333811Y1521511D1*
X1340940D1*
X1345749Y1523942D1*
X1350502Y1528696D1*
X1394626Y1571751D2*
Y1521511D1*
Y1547819D2*
X1389873Y1552627D1*
X1385064Y1555004D1*
X1377879D1*
X1373126Y1552627D1*
X1368318Y1547819D1*
X1365941Y1540634D1*
Y1535881D1*
X1368318Y1528696D1*
X1373126Y1523942D1*
X1377879Y1521511D1*
X1385064D1*
X1389873Y1523942D1*
X1394626Y1528696D1*
X1410065Y1562134D2*
X1414874Y1564566D1*
X1422059Y1571695D1*
Y1521511D1*
X1466183Y1564566D2*
X1463806Y1569319D1*
X1456621Y1571695D1*
X1451868D1*
X1444683Y1569319D1*
X1439875Y1562134D1*
X1437498Y1550196D1*
Y1538257D1*
X1439875Y1528696D1*
X1444683Y1523887D1*
X1451868Y1521511D1*
X1454245D1*
X1461374Y1523887D1*
X1466183Y1528696D1*
X1468560Y1535881D1*
Y1538257D1*
X1466183Y1545442D1*
X1461374Y1550196D1*
X1454245Y1552572D1*
X1451868D1*
X1444683Y1550196D1*
X1439875Y1545442D1*
X1437498Y1538257D1*
X1515116Y1555004D2*
X1512684Y1547819D1*
X1507930Y1543010D1*
X1500745Y1540634D1*
X1498369D1*
X1491184Y1543010D1*
X1486431Y1547819D1*
X1483999Y1555004D1*
Y1557381D1*
X1486431Y1564566D1*
X1491184Y1569319D1*
X1498369Y1571695D1*
X1500745D1*
X1507930Y1569319D1*
X1512684Y1564566D1*
X1515116Y1555004D1*
Y1543010D1*
X1512684Y1531072D1*
X1507930Y1523887D1*
X1500745Y1521511D1*
X1495992D1*
X1488807Y1523887D1*
X1486431Y1528696D1*
X1270480Y1445441D2*
X1292035D1*
X1299165Y1447818D1*
X1301597Y1450249D1*
X1303974Y1455003D1*
Y1462188D1*
X1301597Y1466941D1*
X1299165Y1469373D1*
X1292035Y1471749D1*
X1270480D1*
Y1421509D1*
X1348098Y1455003D2*
Y1421509D1*
Y1447818D2*
X1343345Y1452626D1*
X1338536Y1455003D1*
X1331406D1*
X1326598Y1452626D1*
X1321845Y1447818D1*
X1319413Y1440633D1*
Y1435879D1*
X1321845Y1428694D1*
X1326598Y1423941D1*
X1331406Y1421509D1*
X1338536D1*
X1343345Y1423941D1*
X1348098Y1428694D1*
X1392222Y1471749D2*
Y1421509D1*
Y1447818D2*
X1387469Y1452626D1*
X1382660Y1455003D1*
X1375475D1*
X1370722Y1452626D1*
X1365914Y1447818D1*
X1363537Y1440633D1*
Y1435879D1*
X1365914Y1428694D1*
X1370722Y1423941D1*
X1375475Y1421509D1*
X1382660D1*
X1387469Y1423941D1*
X1392222Y1428694D1*
X1407661Y1462132D2*
X1412470Y1464564D1*
X1419655Y1471694D1*
Y1421509D1*
X1444655D2*
X1468587Y1471694D1*
X1435094D1*
X1498396D2*
X1491211Y1469317D1*
X1486403Y1462132D1*
X1484026Y1450194D1*
Y1443009D1*
X1486403Y1431071D1*
X1491211Y1423886D1*
X1498396Y1421509D1*
X1503150D1*
X1510335Y1423886D1*
X1515088Y1431071D1*
X1517520Y1443009D1*
Y1450194D1*
X1515088Y1462132D1*
X1510335Y1469317D1*
X1503150Y1471694D1*
X1498396D1*
X1515088Y1462132D2*
X1486403Y1431071D1*
X1281230Y1345442D2*
X1302785D1*
X1309915Y1347819D1*
X1312347Y1350251D1*
X1314724Y1355004D1*
Y1362189D1*
X1312347Y1366942D1*
X1309915Y1369374D1*
X1302785Y1371751D1*
X1281230D1*
Y1321511D1*
X1358848Y1355004D2*
Y1321511D1*
Y1347819D2*
X1354094Y1352627D1*
X1349286Y1355004D1*
X1342156D1*
X1337348Y1352627D1*
X1332595Y1347819D1*
X1330163Y1340634D1*
Y1335881D1*
X1332595Y1328696D1*
X1337348Y1323942D1*
X1342156Y1321511D1*
X1349286D1*
X1354094Y1323942D1*
X1358848Y1328696D1*
X1402972Y1371751D2*
Y1321511D1*
Y1347819D2*
X1398219Y1352627D1*
X1393410Y1355004D1*
X1386225D1*
X1381472Y1352627D1*
X1376663Y1347819D1*
X1374287Y1340634D1*
Y1335881D1*
X1376663Y1328696D1*
X1381472Y1323942D1*
X1386225Y1321511D1*
X1393410D1*
X1398219Y1323942D1*
X1402972Y1328696D1*
X1418411Y1362134D2*
X1423219Y1364566D1*
X1430405Y1371695D1*
Y1321511D1*
X1455405D2*
X1479337Y1371695D1*
X1445844D1*
X1494776Y1362134D2*
X1499585Y1364566D1*
X1506770Y1371695D1*
Y1321511D1*
X1270480Y1245442D2*
X1292035D1*
X1299165Y1247819D1*
X1301597Y1250251D1*
X1303974Y1255004D1*
Y1262189D1*
X1301597Y1266942D1*
X1299165Y1269374D1*
X1292035Y1271751D1*
X1270480D1*
Y1221511D1*
X1348098Y1255004D2*
Y1221511D1*
Y1247819D2*
X1343345Y1252627D1*
X1338536Y1255004D1*
X1331406D1*
X1326598Y1252627D1*
X1321845Y1247819D1*
X1319413Y1240634D1*
Y1235881D1*
X1321845Y1228696D1*
X1326598Y1223942D1*
X1331406Y1221511D1*
X1338536D1*
X1343345Y1223942D1*
X1348098Y1228696D1*
X1392222Y1271751D2*
Y1221511D1*
Y1247819D2*
X1387469Y1252627D1*
X1382660Y1255004D1*
X1375475D1*
X1370722Y1252627D1*
X1365914Y1247819D1*
X1363537Y1240634D1*
Y1235881D1*
X1365914Y1228696D1*
X1370722Y1223942D1*
X1375475Y1221511D1*
X1382660D1*
X1387469Y1223942D1*
X1392222Y1228696D1*
X1407661Y1262134D2*
X1412470Y1264566D1*
X1419655Y1271695D1*
Y1221511D1*
X1444655D2*
X1468587Y1271695D1*
X1435094D1*
X1486458Y1259757D2*
Y1262134D1*
X1488835Y1266942D1*
X1491211Y1269319D1*
X1496020Y1271695D1*
X1505582D1*
X1510335Y1269319D1*
X1512711Y1266942D1*
X1515143Y1262134D1*
Y1257381D1*
X1512711Y1252572D1*
X1507958Y1245442D1*
X1484026Y1221511D1*
X1517520D1*
X1270480Y1145441D2*
X1292035D1*
X1299165Y1147818D1*
X1301597Y1150249D1*
X1303974Y1155003D1*
Y1162188D1*
X1301597Y1166941D1*
X1299165Y1169373D1*
X1292035Y1171749D1*
X1270480D1*
Y1121509D1*
X1348098Y1155003D2*
Y1121509D1*
Y1147818D2*
X1343345Y1152626D1*
X1338536Y1155003D1*
X1331406D1*
X1326598Y1152626D1*
X1321845Y1147818D1*
X1319413Y1140633D1*
Y1135879D1*
X1321845Y1128694D1*
X1326598Y1123941D1*
X1331406Y1121509D1*
X1338536D1*
X1343345Y1123941D1*
X1348098Y1128694D1*
X1392222Y1171749D2*
Y1121509D1*
Y1147818D2*
X1387469Y1152626D1*
X1382660Y1155003D1*
X1375475D1*
X1370722Y1152626D1*
X1365914Y1147818D1*
X1363537Y1140633D1*
Y1135879D1*
X1365914Y1128694D1*
X1370722Y1123941D1*
X1375475Y1121509D1*
X1382660D1*
X1387469Y1123941D1*
X1392222Y1128694D1*
X1407661Y1162132D2*
X1412470Y1164564D1*
X1419655Y1171694D1*
Y1121509D1*
X1444655D2*
X1468587Y1171694D1*
X1435094D1*
X1488835D2*
X1515088D1*
X1500773Y1152571D1*
X1507958D1*
X1512711Y1150194D1*
X1515088Y1147818D1*
X1517520Y1140633D1*
Y1135879D1*
X1515088Y1128694D1*
X1510335Y1123886D1*
X1503150Y1121509D1*
X1495965D1*
X1488835Y1123886D1*
X1486458Y1126318D1*
X1484026Y1131071D1*
X1269292Y1045442D2*
X1290847D1*
X1297977Y1047819D1*
X1300409Y1050251D1*
X1302785Y1055004D1*
Y1062189D1*
X1300409Y1066942D1*
X1297977Y1069374D1*
X1290847Y1071751D1*
X1269292D1*
Y1021511D1*
X1346909Y1055004D2*
Y1021511D1*
Y1047819D2*
X1342156Y1052627D1*
X1337348Y1055004D1*
X1330218D1*
X1325410Y1052627D1*
X1320656Y1047819D1*
X1318225Y1040634D1*
Y1035881D1*
X1320656Y1028696D1*
X1325410Y1023942D1*
X1330218Y1021511D1*
X1337348D1*
X1342156Y1023942D1*
X1346909Y1028696D1*
X1391034Y1071751D2*
Y1021511D1*
Y1047819D2*
X1386280Y1052627D1*
X1381472Y1055004D1*
X1374287D1*
X1369534Y1052627D1*
X1364725Y1047819D1*
X1362349Y1040634D1*
Y1035881D1*
X1364725Y1028696D1*
X1369534Y1023942D1*
X1374287Y1021511D1*
X1381472D1*
X1386280Y1023942D1*
X1391034Y1028696D1*
X1406473Y1062134D2*
X1411281Y1064566D1*
X1418466Y1071695D1*
Y1021511D1*
X1443467D2*
X1467399Y1071695D1*
X1433906D1*
X1506770Y1021511D2*
Y1071695D1*
X1482838Y1038257D1*
X1518708D1*
X1270480Y945442D2*
X1292035D1*
X1299165Y947819D1*
X1301597Y950251D1*
X1303974Y955004D1*
Y962189D1*
X1301597Y966942D1*
X1299165Y969374D1*
X1292035Y971751D1*
X1270480D1*
Y921511D1*
X1348098Y955004D2*
Y921511D1*
Y947819D2*
X1343345Y952627D1*
X1338536Y955004D1*
X1331406D1*
X1326598Y952627D1*
X1321845Y947819D1*
X1319413Y940634D1*
Y935881D1*
X1321845Y928696D1*
X1326598Y923942D1*
X1331406Y921511D1*
X1338536D1*
X1343345Y923942D1*
X1348098Y928696D1*
X1392222Y971751D2*
Y921511D1*
Y947819D2*
X1387469Y952627D1*
X1382660Y955004D1*
X1375475D1*
X1370722Y952627D1*
X1365914Y947819D1*
X1363537Y940634D1*
Y935881D1*
X1365914Y928696D1*
X1370722Y923942D1*
X1375475Y921511D1*
X1382660D1*
X1387469Y923942D1*
X1392222Y928696D1*
X1407661Y962134D2*
X1412470Y964566D1*
X1419655Y971695D1*
Y921511D1*
X1444655D2*
X1468587Y971695D1*
X1435094D1*
X1512711D2*
X1488835D1*
X1486458Y950196D1*
X1488835Y952572D1*
X1496020Y955004D1*
X1503150D1*
X1510335Y952572D1*
X1515143Y947819D1*
X1517520Y940634D1*
Y935881D1*
X1515143Y928696D1*
X1510335Y923887D1*
X1503150Y921511D1*
X1496020D1*
X1488835Y923887D1*
X1486458Y926319D1*
X1484026Y931072D1*
X1271696Y845441D2*
X1293251D1*
X1300381Y847818D1*
X1302813Y850249D1*
X1305190Y855003D1*
Y862188D1*
X1302813Y866941D1*
X1300381Y869373D1*
X1293251Y871749D1*
X1271696D1*
Y821509D1*
X1349314Y855003D2*
Y821509D1*
Y847818D2*
X1344560Y852626D1*
X1339752Y855003D1*
X1332622D1*
X1327814Y852626D1*
X1323061Y847818D1*
X1320629Y840633D1*
Y835879D1*
X1323061Y828694D1*
X1327814Y823941D1*
X1332622Y821509D1*
X1339752D1*
X1344560Y823941D1*
X1349314Y828694D1*
X1393438Y871749D2*
Y821509D1*
Y847818D2*
X1388685Y852626D1*
X1383876Y855003D1*
X1376691D1*
X1371938Y852626D1*
X1367129Y847818D1*
X1364753Y840633D1*
Y835879D1*
X1367129Y828694D1*
X1371938Y823941D1*
X1376691Y821509D1*
X1383876D1*
X1388685Y823941D1*
X1393438Y828694D1*
X1408877Y862132D2*
X1413685Y864564D1*
X1420871Y871694D1*
Y821509D1*
X1445871D2*
X1469803Y871694D1*
X1436310D1*
X1513927Y864564D2*
X1511551Y869317D1*
X1504366Y871694D1*
X1499612D1*
X1492427Y869317D1*
X1487619Y862132D1*
X1485242Y850194D1*
Y838256D1*
X1487619Y828694D1*
X1492427Y823886D1*
X1499612Y821509D1*
X1501989D1*
X1509119Y823886D1*
X1513927Y828694D1*
X1516304Y835879D1*
Y838256D1*
X1513927Y845441D1*
X1509119Y850194D1*
X1501989Y852571D1*
X1499612D1*
X1492427Y850194D1*
X1487619Y845441D1*
X1485242Y838256D1*
X1270480Y745442D2*
X1292035D1*
X1299165Y747819D1*
X1301597Y750251D1*
X1303974Y755004D1*
Y762189D1*
X1301597Y766942D1*
X1299165Y769374D1*
X1292035Y771751D1*
X1270480D1*
Y721511D1*
X1348098Y755004D2*
Y721511D1*
Y747819D2*
X1343345Y752627D1*
X1338536Y755004D1*
X1331406D1*
X1326598Y752627D1*
X1321845Y747819D1*
X1319413Y740634D1*
Y735881D1*
X1321845Y728696D1*
X1326598Y723942D1*
X1331406Y721511D1*
X1338536D1*
X1343345Y723942D1*
X1348098Y728696D1*
X1392222Y771751D2*
Y721511D1*
Y747819D2*
X1387469Y752627D1*
X1382660Y755004D1*
X1375475D1*
X1370722Y752627D1*
X1365914Y747819D1*
X1363537Y740634D1*
Y735881D1*
X1365914Y728696D1*
X1370722Y723942D1*
X1375475Y721511D1*
X1382660D1*
X1387469Y723942D1*
X1392222Y728696D1*
X1407661Y762134D2*
X1412470Y764566D1*
X1419655Y771695D1*
Y721511D1*
X1444655D2*
X1468587Y771695D1*
X1435094D1*
X1493588Y721511D2*
X1517520Y771695D1*
X1484026D1*
X1270508Y645442D2*
X1292063D1*
X1299193Y647819D1*
X1301625Y650251D1*
X1304001Y655004D1*
Y662189D1*
X1301625Y666942D1*
X1299193Y669374D1*
X1292063Y671751D1*
X1270508D1*
Y621511D1*
X1348125Y655004D2*
Y621511D1*
Y647819D2*
X1343372Y652627D1*
X1338564Y655004D1*
X1331434D1*
X1326626Y652627D1*
X1321872Y647819D1*
X1319440Y640634D1*
Y635881D1*
X1321872Y628696D1*
X1326626Y623942D1*
X1331434Y621511D1*
X1338564D1*
X1343372Y623942D1*
X1348125Y628696D1*
X1392249Y671751D2*
Y621511D1*
Y647819D2*
X1387496Y652627D1*
X1382688Y655004D1*
X1375503D1*
X1370750Y652627D1*
X1365941Y647819D1*
X1363565Y640634D1*
Y635881D1*
X1365941Y628696D1*
X1370750Y623942D1*
X1375503Y621511D1*
X1382688D1*
X1387496Y623942D1*
X1392249Y628696D1*
X1407689Y662134D2*
X1412497Y664566D1*
X1419682Y671695D1*
Y621511D1*
X1444683D2*
X1468615Y671695D1*
X1435121D1*
X1495992D2*
X1488863Y669319D1*
X1486431Y664566D1*
Y659757D1*
X1488863Y655004D1*
X1493616Y652572D1*
X1503177Y650196D1*
X1510362Y647819D1*
X1515116Y643010D1*
X1517492Y638257D1*
Y631072D1*
X1515116Y626319D1*
X1512739Y623887D1*
X1505554Y621511D1*
X1495992D1*
X1488863Y623887D1*
X1486431Y626319D1*
X1484054Y631072D1*
Y638257D1*
X1486431Y643010D1*
X1491239Y647819D1*
X1498369Y650196D1*
X1507930Y652572D1*
X1512739Y655004D1*
X1515116Y659757D1*
Y664566D1*
X1512739Y669319D1*
X1505554Y671695D1*
X1495992D1*
X1270508Y545442D2*
X1292063D1*
X1299193Y547819D1*
X1301625Y550251D1*
X1304001Y555004D1*
Y562189D1*
X1301625Y566942D1*
X1299193Y569374D1*
X1292063Y571751D1*
X1270508D1*
Y521511D1*
X1348125Y555004D2*
Y521511D1*
Y547819D2*
X1343372Y552627D1*
X1338564Y555004D1*
X1331434D1*
X1326626Y552627D1*
X1321872Y547819D1*
X1319440Y540634D1*
Y535881D1*
X1321872Y528696D1*
X1326626Y523942D1*
X1331434Y521511D1*
X1338564D1*
X1343372Y523942D1*
X1348125Y528696D1*
X1392249Y571751D2*
Y521511D1*
Y547819D2*
X1387496Y552627D1*
X1382688Y555004D1*
X1375503D1*
X1370750Y552627D1*
X1365941Y547819D1*
X1363565Y540634D1*
Y535881D1*
X1365941Y528696D1*
X1370750Y523942D1*
X1375503Y521511D1*
X1382688D1*
X1387496Y523942D1*
X1392249Y528696D1*
X1407689Y562134D2*
X1412497Y564566D1*
X1419682Y571695D1*
Y521511D1*
X1447060Y571695D2*
X1439930Y569319D1*
X1437498Y564566D1*
Y559757D1*
X1439930Y555004D1*
X1444683Y552572D1*
X1454245Y550196D1*
X1461430Y547819D1*
X1466183Y543010D1*
X1468560Y538257D1*
Y531072D1*
X1466183Y526319D1*
X1463806Y523887D1*
X1456621Y521511D1*
X1447060D1*
X1439930Y523887D1*
X1437498Y526319D1*
X1435121Y531072D1*
Y538257D1*
X1437498Y543010D1*
X1442307Y547819D1*
X1449436Y550196D1*
X1458998Y552572D1*
X1463806Y555004D1*
X1466183Y559757D1*
Y564566D1*
X1463806Y569319D1*
X1456621Y571695D1*
X1447060D1*
X1498369D2*
X1491184Y569319D1*
X1486375Y562134D1*
X1483999Y550196D1*
Y543010D1*
X1486375Y531072D1*
X1491184Y523887D1*
X1498369Y521511D1*
X1503122D1*
X1510307Y523887D1*
X1515060Y531072D1*
X1517492Y543010D1*
Y550196D1*
X1515060Y562134D1*
X1510307Y569319D1*
X1503122Y571695D1*
X1498369D1*
X1515060Y562134D2*
X1486375Y531072D1*
X1281258Y2745442D2*
X1302813D1*
X1309943Y2747819D1*
X1312375Y2750251D1*
X1314751Y2755004D1*
Y2762189D1*
X1312375Y2766942D1*
X1309943Y2769374D1*
X1302813Y2771751D1*
X1281258D1*
Y2721511D1*
X1358875Y2755004D2*
Y2721511D1*
Y2747819D2*
X1354122Y2752627D1*
X1349314Y2755004D1*
X1342184D1*
X1337375Y2752627D1*
X1332622Y2747819D1*
X1330190Y2740634D1*
Y2735881D1*
X1332622Y2728696D1*
X1337375Y2723942D1*
X1342184Y2721511D1*
X1349314D1*
X1354122Y2723942D1*
X1358875Y2728696D1*
X1402999Y2771751D2*
Y2721511D1*
Y2747819D2*
X1398246Y2752627D1*
X1393438Y2755004D1*
X1386253D1*
X1381500Y2752627D1*
X1376691Y2747819D1*
X1374315Y2740634D1*
Y2735881D1*
X1376691Y2728696D1*
X1381500Y2723942D1*
X1386253Y2721511D1*
X1393438D1*
X1398246Y2723942D1*
X1402999Y2728696D1*
X1418439Y2762134D2*
X1423247Y2764566D1*
X1430432Y2771695D1*
Y2721511D1*
X1457810Y2771695D2*
X1450680Y2769319D1*
X1448248Y2764566D1*
Y2759757D1*
X1450680Y2755004D1*
X1455433Y2752572D1*
X1464995Y2750196D1*
X1472180Y2747819D1*
X1476933Y2743010D1*
X1479309Y2738257D1*
Y2731072D1*
X1476933Y2726319D1*
X1474556Y2723887D1*
X1467371Y2721511D1*
X1457810D1*
X1450680Y2723887D1*
X1448248Y2726319D1*
X1445871Y2731072D1*
Y2738257D1*
X1448248Y2743010D1*
X1453056Y2747819D1*
X1460186Y2750196D1*
X1469748Y2752572D1*
X1474556Y2755004D1*
X1476933Y2759757D1*
Y2764566D1*
X1474556Y2769319D1*
X1467371Y2771695D1*
X1457810D1*
X1494749Y2762134D2*
X1499557Y2764566D1*
X1506742Y2771695D1*
Y2721511D1*
X770508Y1045442D2*
X792063D1*
X799193Y1047819D1*
X801625Y1050251D1*
X804001Y1055004D1*
Y1062189D1*
X801625Y1066942D1*
X799193Y1069374D1*
X792063Y1071751D1*
X770508D1*
Y1021511D1*
X848125Y1055004D2*
Y1021511D1*
Y1047819D2*
X843372Y1052627D1*
X838564Y1055004D1*
X831434D1*
X826626Y1052627D1*
X821872Y1047819D1*
X819440Y1040634D1*
Y1035881D1*
X821872Y1028696D1*
X826626Y1023942D1*
X831434Y1021511D1*
X838564D1*
X843372Y1023942D1*
X848125Y1028696D1*
X892249Y1071751D2*
Y1021511D1*
Y1047819D2*
X887496Y1052627D1*
X882688Y1055004D1*
X875503D1*
X870750Y1052627D1*
X865941Y1047819D1*
X863565Y1040634D1*
Y1035881D1*
X865941Y1028696D1*
X870750Y1023942D1*
X875503Y1021511D1*
X882688D1*
X887496Y1023942D1*
X892249Y1028696D1*
X907689Y1062134D2*
X912497Y1064566D1*
X919682Y1071695D1*
Y1021511D1*
X947060Y1071695D2*
X939930Y1069319D1*
X937498Y1064566D1*
Y1059757D1*
X939930Y1055004D1*
X944683Y1052572D1*
X954245Y1050196D1*
X961430Y1047819D1*
X966183Y1043010D1*
X968560Y1038257D1*
Y1031072D1*
X966183Y1026319D1*
X963806Y1023887D1*
X956621Y1021511D1*
X947060D1*
X939930Y1023887D1*
X937498Y1026319D1*
X935121Y1031072D1*
Y1038257D1*
X937498Y1043010D1*
X942307Y1047819D1*
X949436Y1050196D1*
X958998Y1052572D1*
X963806Y1055004D1*
X966183Y1059757D1*
Y1064566D1*
X963806Y1069319D1*
X956621Y1071695D1*
X947060D1*
X986431Y1059757D2*
Y1062134D1*
X988807Y1066942D1*
X991184Y1069319D1*
X995992Y1071695D1*
X1005554D1*
X1010307Y1069319D1*
X1012684Y1066942D1*
X1015116Y1062134D1*
Y1057381D1*
X1012684Y1052572D1*
X1007930Y1045442D1*
X983999Y1021511D1*
X1017492D1*
X870508Y1045442D2*
X892063D1*
X899193Y1047819D1*
X901625Y1050251D1*
X904001Y1055004D1*
Y1062189D1*
X901625Y1066942D1*
X899193Y1069374D1*
X892063Y1071751D1*
X870508D1*
Y1021511D1*
X948125Y1055004D2*
Y1021511D1*
Y1047819D2*
X943372Y1052627D1*
X938564Y1055004D1*
X931434D1*
X926626Y1052627D1*
X921872Y1047819D1*
X919440Y1040634D1*
Y1035881D1*
X921872Y1028696D1*
X926626Y1023942D1*
X931434Y1021511D1*
X938564D1*
X943372Y1023942D1*
X948125Y1028696D1*
X992249Y1071751D2*
Y1021511D1*
Y1047819D2*
X987496Y1052627D1*
X982688Y1055004D1*
X975503D1*
X970750Y1052627D1*
X965941Y1047819D1*
X963565Y1040634D1*
Y1035881D1*
X965941Y1028696D1*
X970750Y1023942D1*
X975503Y1021511D1*
X982688D1*
X987496Y1023942D1*
X992249Y1028696D1*
X1007689Y1062134D2*
X1012497Y1064566D1*
X1019682Y1071695D1*
Y1021511D1*
X1047060Y1071695D2*
X1039930Y1069319D1*
X1037498Y1064566D1*
Y1059757D1*
X1039930Y1055004D1*
X1044683Y1052572D1*
X1054245Y1050196D1*
X1061430Y1047819D1*
X1066183Y1043010D1*
X1068560Y1038257D1*
Y1031072D1*
X1066183Y1026319D1*
X1063806Y1023887D1*
X1056621Y1021511D1*
X1047060D1*
X1039930Y1023887D1*
X1037498Y1026319D1*
X1035121Y1031072D1*
Y1038257D1*
X1037498Y1043010D1*
X1042307Y1047819D1*
X1049436Y1050196D1*
X1058998Y1052572D1*
X1063806Y1055004D1*
X1066183Y1059757D1*
Y1064566D1*
X1063806Y1069319D1*
X1056621Y1071695D1*
X1047060D1*
X1088807D2*
X1115060D1*
X1100745Y1052572D1*
X1107930D1*
X1112684Y1050196D1*
X1115060Y1047819D1*
X1117492Y1040634D1*
Y1035881D1*
X1115060Y1028696D1*
X1110307Y1023887D1*
X1103122Y1021511D1*
X1095937D1*
X1088807Y1023887D1*
X1086431Y1026319D1*
X1083999Y1031072D1*
X969320Y1045442D2*
X990875D1*
X998004Y1047819D1*
X1000436Y1050251D1*
X1002813Y1055004D1*
Y1062189D1*
X1000436Y1066942D1*
X998004Y1069374D1*
X990875Y1071751D1*
X969320D1*
Y1021511D1*
X1046937Y1055004D2*
Y1021511D1*
Y1047819D2*
X1042184Y1052627D1*
X1037375Y1055004D1*
X1030246D1*
X1025437Y1052627D1*
X1020684Y1047819D1*
X1018252Y1040634D1*
Y1035881D1*
X1020684Y1028696D1*
X1025437Y1023942D1*
X1030246Y1021511D1*
X1037375D1*
X1042184Y1023942D1*
X1046937Y1028696D1*
X1091061Y1071751D2*
Y1021511D1*
Y1047819D2*
X1086308Y1052627D1*
X1081500Y1055004D1*
X1074315D1*
X1069561Y1052627D1*
X1064753Y1047819D1*
X1062376Y1040634D1*
Y1035881D1*
X1064753Y1028696D1*
X1069561Y1023942D1*
X1074315Y1021511D1*
X1081500D1*
X1086308Y1023942D1*
X1091061Y1028696D1*
X1106500Y1062134D2*
X1111309Y1064566D1*
X1118494Y1071695D1*
Y1021511D1*
X1145871Y1071695D2*
X1138742Y1069319D1*
X1136310Y1064566D1*
Y1059757D1*
X1138742Y1055004D1*
X1143495Y1052572D1*
X1153056Y1050196D1*
X1160241Y1047819D1*
X1164995Y1043010D1*
X1167371Y1038257D1*
Y1031072D1*
X1164995Y1026319D1*
X1162618Y1023887D1*
X1155433Y1021511D1*
X1145871D1*
X1138742Y1023887D1*
X1136310Y1026319D1*
X1133933Y1031072D1*
Y1038257D1*
X1136310Y1043010D1*
X1141118Y1047819D1*
X1148248Y1050196D1*
X1157810Y1052572D1*
X1162618Y1055004D1*
X1164995Y1059757D1*
Y1064566D1*
X1162618Y1069319D1*
X1155433Y1071695D1*
X1145871D1*
X1206742Y1021511D2*
Y1071695D1*
X1182810Y1038257D1*
X1218680D1*
X1070508Y1045442D2*
X1092063D1*
X1099193Y1047819D1*
X1101625Y1050251D1*
X1104001Y1055004D1*
Y1062189D1*
X1101625Y1066942D1*
X1099193Y1069374D1*
X1092063Y1071751D1*
X1070508D1*
Y1021511D1*
X1148125Y1055004D2*
Y1021511D1*
Y1047819D2*
X1143372Y1052627D1*
X1138564Y1055004D1*
X1131434D1*
X1126626Y1052627D1*
X1121872Y1047819D1*
X1119440Y1040634D1*
Y1035881D1*
X1121872Y1028696D1*
X1126626Y1023942D1*
X1131434Y1021511D1*
X1138564D1*
X1143372Y1023942D1*
X1148125Y1028696D1*
X1192249Y1071751D2*
Y1021511D1*
Y1047819D2*
X1187496Y1052627D1*
X1182688Y1055004D1*
X1175503D1*
X1170750Y1052627D1*
X1165941Y1047819D1*
X1163565Y1040634D1*
Y1035881D1*
X1165941Y1028696D1*
X1170750Y1023942D1*
X1175503Y1021511D1*
X1182688D1*
X1187496Y1023942D1*
X1192249Y1028696D1*
X1207689Y1062134D2*
X1212497Y1064566D1*
X1219682Y1071695D1*
Y1021511D1*
X1247060Y1071695D2*
X1239930Y1069319D1*
X1237498Y1064566D1*
Y1059757D1*
X1239930Y1055004D1*
X1244683Y1052572D1*
X1254245Y1050196D1*
X1261430Y1047819D1*
X1266183Y1043010D1*
X1268560Y1038257D1*
Y1031072D1*
X1266183Y1026319D1*
X1263806Y1023887D1*
X1256621Y1021511D1*
X1247060D1*
X1239930Y1023887D1*
X1237498Y1026319D1*
X1235121Y1031072D1*
Y1038257D1*
X1237498Y1043010D1*
X1242307Y1047819D1*
X1249436Y1050196D1*
X1258998Y1052572D1*
X1263806Y1055004D1*
X1266183Y1059757D1*
Y1064566D1*
X1263806Y1069319D1*
X1256621Y1071695D1*
X1247060D1*
X1312684D2*
X1288807D1*
X1286431Y1050196D1*
X1288807Y1052572D1*
X1295992Y1055004D1*
X1303122D1*
X1310307Y1052572D1*
X1315116Y1047819D1*
X1317492Y1040634D1*
Y1035881D1*
X1315116Y1028696D1*
X1310307Y1023887D1*
X1303122Y1021511D1*
X1295992D1*
X1288807Y1023887D1*
X1286431Y1026319D1*
X1283999Y1031072D1*
X1171724Y1045442D2*
X1193279D1*
X1200409Y1047819D1*
X1202841Y1050251D1*
X1205217Y1055004D1*
Y1062189D1*
X1202841Y1066942D1*
X1200409Y1069374D1*
X1193279Y1071751D1*
X1171724D1*
Y1021511D1*
X1249341Y1055004D2*
Y1021511D1*
Y1047819D2*
X1244588Y1052627D1*
X1239780Y1055004D1*
X1232650D1*
X1227841Y1052627D1*
X1223088Y1047819D1*
X1220656Y1040634D1*
Y1035881D1*
X1223088Y1028696D1*
X1227841Y1023942D1*
X1232650Y1021511D1*
X1239780D1*
X1244588Y1023942D1*
X1249341Y1028696D1*
X1293465Y1071751D2*
Y1021511D1*
Y1047819D2*
X1288712Y1052627D1*
X1283904Y1055004D1*
X1276719D1*
X1271966Y1052627D1*
X1267157Y1047819D1*
X1264781Y1040634D1*
Y1035881D1*
X1267157Y1028696D1*
X1271966Y1023942D1*
X1276719Y1021511D1*
X1283904D1*
X1288712Y1023942D1*
X1293465Y1028696D1*
X1308905Y1062134D2*
X1313713Y1064566D1*
X1320898Y1071695D1*
Y1021511D1*
X1348276Y1071695D2*
X1341146Y1069319D1*
X1338714Y1064566D1*
Y1059757D1*
X1341146Y1055004D1*
X1345899Y1052572D1*
X1355461Y1050196D1*
X1362646Y1047819D1*
X1367399Y1043010D1*
X1369775Y1038257D1*
Y1031072D1*
X1367399Y1026319D1*
X1365022Y1023887D1*
X1357837Y1021511D1*
X1348276D1*
X1341146Y1023887D1*
X1338714Y1026319D1*
X1336337Y1031072D1*
Y1038257D1*
X1338714Y1043010D1*
X1343522Y1047819D1*
X1350652Y1050196D1*
X1360214Y1052572D1*
X1365022Y1055004D1*
X1367399Y1059757D1*
Y1064566D1*
X1365022Y1069319D1*
X1357837Y1071695D1*
X1348276D1*
X1413900Y1064566D2*
X1411523Y1069319D1*
X1404338Y1071695D1*
X1399585D1*
X1392400Y1069319D1*
X1387591Y1062134D1*
X1385215Y1050196D1*
Y1038257D1*
X1387591Y1028696D1*
X1392400Y1023887D1*
X1399585Y1021511D1*
X1401961D1*
X1409091Y1023887D1*
X1413900Y1028696D1*
X1416276Y1035881D1*
Y1038257D1*
X1413900Y1045442D1*
X1409091Y1050196D1*
X1401961Y1052572D1*
X1399585D1*
X1392400Y1050196D1*
X1387591Y1045442D1*
X1385215Y1038257D1*
X670508Y2945442D2*
X692063D1*
X699193Y2947819D1*
X701625Y2950251D1*
X704001Y2955004D1*
Y2962189D1*
X701625Y2966942D1*
X699193Y2969374D1*
X692063Y2971751D1*
X670508D1*
Y2921511D1*
X748125Y2955004D2*
Y2921511D1*
Y2947819D2*
X743372Y2952627D1*
X738564Y2955004D1*
X731434D1*
X726626Y2952627D1*
X721872Y2947819D1*
X719440Y2940634D1*
Y2935881D1*
X721872Y2928696D1*
X726626Y2923942D1*
X731434Y2921511D1*
X738564D1*
X743372Y2923942D1*
X748125Y2928696D1*
X792249Y2971751D2*
Y2921511D1*
Y2947819D2*
X787496Y2952627D1*
X782688Y2955004D1*
X775503D1*
X770750Y2952627D1*
X765941Y2947819D1*
X763565Y2940634D1*
Y2935881D1*
X765941Y2928696D1*
X770750Y2923942D1*
X775503Y2921511D1*
X782688D1*
X787496Y2923942D1*
X792249Y2928696D1*
X807689Y2962134D2*
X812497Y2964566D1*
X819682Y2971695D1*
Y2921511D1*
X847060Y2971695D2*
X839930Y2969319D1*
X837498Y2964566D1*
Y2959757D1*
X839930Y2955004D1*
X844683Y2952572D1*
X854245Y2950196D1*
X861430Y2947819D1*
X866183Y2943010D1*
X868560Y2938257D1*
Y2931072D1*
X866183Y2926319D1*
X863806Y2923887D1*
X856621Y2921511D1*
X847060D1*
X839930Y2923887D1*
X837498Y2926319D1*
X835121Y2931072D1*
Y2938257D1*
X837498Y2943010D1*
X842307Y2947819D1*
X849436Y2950196D1*
X858998Y2952572D1*
X863806Y2955004D1*
X866183Y2959757D1*
Y2964566D1*
X863806Y2969319D1*
X856621Y2971695D1*
X847060D1*
X893560Y2921511D2*
X917492Y2971695D1*
X883999D1*
X1270536Y2945442D2*
X1292091D1*
X1299220Y2947819D1*
X1301652Y2950251D1*
X1304029Y2955004D1*
Y2962189D1*
X1301652Y2966942D1*
X1299220Y2969374D1*
X1292091Y2971751D1*
X1270536D1*
Y2921511D1*
X1348153Y2955004D2*
Y2921511D1*
Y2947819D2*
X1343400Y2952627D1*
X1338591Y2955004D1*
X1331462D1*
X1326653Y2952627D1*
X1321900Y2947819D1*
X1319468Y2940634D1*
Y2935881D1*
X1321900Y2928696D1*
X1326653Y2923942D1*
X1331462Y2921511D1*
X1338591D1*
X1343400Y2923942D1*
X1348153Y2928696D1*
X1392277Y2971751D2*
Y2921511D1*
Y2947819D2*
X1387524Y2952627D1*
X1382715Y2955004D1*
X1375530D1*
X1370777Y2952627D1*
X1365969Y2947819D1*
X1363592Y2940634D1*
Y2935881D1*
X1365969Y2928696D1*
X1370777Y2923942D1*
X1375530Y2921511D1*
X1382715D1*
X1387524Y2923942D1*
X1392277Y2928696D1*
X1407716Y2962134D2*
X1412525Y2964566D1*
X1419710Y2971695D1*
Y2921511D1*
X1447087Y2971695D2*
X1439958Y2969319D1*
X1437526Y2964566D1*
Y2959757D1*
X1439958Y2955004D1*
X1444711Y2952572D1*
X1454272Y2950196D1*
X1461457Y2947819D1*
X1466211Y2943010D1*
X1468587Y2938257D1*
Y2931072D1*
X1466211Y2926319D1*
X1463834Y2923887D1*
X1456649Y2921511D1*
X1447087D1*
X1439958Y2923887D1*
X1437526Y2926319D1*
X1435149Y2931072D1*
Y2938257D1*
X1437526Y2943010D1*
X1442334Y2947819D1*
X1449464Y2950196D1*
X1459026Y2952572D1*
X1463834Y2955004D1*
X1466211Y2959757D1*
Y2964566D1*
X1463834Y2969319D1*
X1456649Y2971695D1*
X1447087D1*
X1495965D2*
X1488835Y2969319D1*
X1486403Y2964566D1*
Y2959757D1*
X1488835Y2955004D1*
X1493588Y2952572D1*
X1503150Y2950196D1*
X1510335Y2947819D1*
X1515088Y2943010D1*
X1517464Y2938257D1*
Y2931072D1*
X1515088Y2926319D1*
X1512711Y2923887D1*
X1505526Y2921511D1*
X1495965D1*
X1488835Y2923887D1*
X1486403Y2926319D1*
X1484026Y2931072D1*
Y2938257D1*
X1486403Y2943010D1*
X1491211Y2947819D1*
X1498341Y2950196D1*
X1507903Y2952572D1*
X1512711Y2955004D1*
X1515088Y2959757D1*
Y2964566D1*
X1512711Y2969319D1*
X1505526Y2971695D1*
X1495965D1*
M02*
