M48
METRIC,0000.00
T01C0.486
T02C0.9
%
T02
X+004176Y+004112
X+004239Y+002461
X+004239Y+002715
X+005954Y+005382
X+003985Y+006779
X+004303Y+005001
X+004620Y+005001
X+005954Y+005128
X+004303Y+005255
X+004239Y+005509
X+004874Y+004747
X+004430Y+004747
X+003922Y+005763
X+005954Y+004874
X+003858Y+004493
X+005954Y+004620
X+005954Y+004366
X+005954Y+004112
X+005954Y+003858
X+005954Y+003604
X+005954Y+003350
X+005954Y+003096
X+006652Y+002080
X+004239Y+001699
X+004239Y+007160
X+003985Y+007160
X+004493Y+007160
X+004176Y+001318
X+003922Y+001318
X+004430Y+001318
X+001255Y+004112
X+001255Y+004366
X+001255Y+003858
X+007097Y+004112
X+007097Y+004366
X+007097Y+003858
X+001429Y+006986
X+001604Y+007160
X+001255Y+006811
X+001255Y+001668
X+001429Y+001493
X+006748Y+007144
X+001604Y+001318
X+006922Y+001493
X+007097Y+001668
X+006748Y+001318
X+006922Y+006970
X+007097Y+006795
X+002017Y+007033
X+002017Y+006779
X+002017Y+006525
X+002017Y+006271
X+002017Y+006017
X+002017Y+005763
X+002017Y+005509
X+002017Y+005255
X+002017Y+005001
X+002017Y+004747
X+002017Y+004493
X+002017Y+004239
X+002017Y+003985
X+002017Y+003731
X+002017Y+003477
X+002017Y+003223
X+002017Y+002969
X+002017Y+002715
X+002017Y+002461
X+002017Y+002207
X+002017Y+001953
X+002017Y+001699
X+002017Y+001445
X+002017Y+001191
X+003541Y+007033
X+003541Y+006525
X+003541Y+006271
X+003541Y+006017
X+003541Y+005763
X+003541Y+005509
X+003541Y+005255
X+003541Y+005001
X+003541Y+004747
X+003541Y+004493
X+003541Y+004239
X+003541Y+003985
X+003541Y+003731
X+003541Y+003477
X+003541Y+003223
X+003541Y+002969
X+003541Y+002715
X+003541Y+002461
X+003541Y+002207
X+003541Y+001953
X+003541Y+001699
X+003541Y+001445
X+003541Y+001191
X+003541Y+006779
X+002271Y+002461
X+002525Y+002461
X+002779Y+002461
X+003033Y+002461
X+003287Y+002461
X+002017Y+007287
X+003541Y+007287
X+001572Y+006652
X+001636Y+003731
T01
X+006525Y+006779
X+005128Y+003160
X+004747Y+003096
X+005001Y+003287
X+005192Y+004620
X+005382Y+003795
X+005065Y+005192
X+006652Y+004366
T00
M30
