M48
INCH
T01C0.0191
T02C0.0354
%
T02
X+016440Y+016190
X+016690Y+009690
X+016690Y+010690
X+023440Y+021190
X+015690Y+026690
X+016940Y+019690
X+018190Y+019690
X+023440Y+020190
X+016940Y+020690
X+016690Y+021690
X+019190Y+018690
X+017440Y+018690
X+015440Y+022690
X+023440Y+019190
X+015190Y+017690
X+023440Y+018190
X+023440Y+017190
X+023440Y+016190
X+023440Y+015190
X+023440Y+014190
X+023440Y+013190
X+023440Y+012190
X+026190Y+008190
X+016690Y+006690
X+016690Y+028190
X+015690Y+028190
X+017690Y+028190
X+016440Y+005190
X+015440Y+005190
X+017440Y+005190
X+004940Y+016190
X+004940Y+017190
X+004940Y+015190
X+027940Y+016190
X+027940Y+017190
X+027940Y+015190
X+005627Y+027503
X+006315Y+028190
X+004940Y+026815
X+004940Y+006565
X+005628Y+005877
X+026565Y+028127
X+006315Y+005190
X+027253Y+005878
X+027940Y+006565
X+026565Y+005190
X+027252Y+027440
X+027940Y+026753
X+007940Y+027690
X+007940Y+026690
X+007940Y+025690
X+007940Y+024690
X+007940Y+023690
X+007940Y+022690
X+007940Y+021690
X+007940Y+020690
X+007940Y+019690
X+007940Y+018690
X+007940Y+017690
X+007940Y+016690
X+007940Y+015690
X+007940Y+014690
X+007940Y+013690
X+007940Y+012690
X+007940Y+011690
X+007940Y+010690
X+007940Y+009690
X+007940Y+008690
X+007940Y+007690
X+007940Y+006690
X+007940Y+005690
X+007940Y+004690
X+013940Y+027690
X+013940Y+025690
X+013940Y+024690
X+013940Y+023690
X+013940Y+022690
X+013940Y+021690
X+013940Y+020690
X+013940Y+019690
X+013940Y+018690
X+013940Y+017690
X+013940Y+016690
X+013940Y+015690
X+013940Y+014690
X+013940Y+013690
X+013940Y+012690
X+013940Y+011690
X+013940Y+010690
X+013940Y+009690
X+013940Y+008690
X+013940Y+007690
X+013940Y+006690
X+013940Y+005690
X+013940Y+004690
X+013940Y+026690
X+008940Y+009690
X+009940Y+009690
X+010940Y+009690
X+011940Y+009690
X+012940Y+009690
X+007940Y+028690
X+013940Y+028690
X+006190Y+026190
X+006440Y+014690
T01
X+025690Y+026690
X+020190Y+012440
X+018690Y+012190
X+019690Y+012940
X+020440Y+018190
X+021190Y+014940
X+019940Y+020440
X+026190Y+017190
T00
M30
