%TF.GenerationSoftware,Novarm,DipTrace,3.2.0.1*%
%TF.CreationDate,2018-10-31T10:57:32-06:00*%
%FSLAX26Y26*%
%MOIN*%
%TF.FileFunction,Copper,L1,Top*%
%TF.Part,Single*%
%TA.AperFunction,Conductor*%
%ADD13C,0.012992*%
%TA.AperFunction,ComponentPad*%
%ADD14C,0.059055*%
%ADD15C,0.059055*%
%TA.AperFunction,ViaPad*%
%ADD16C,0.04*%
G75*
G01*
%LPD*%
X1394000Y2769000D2*
D13*
X894000D1*
X844000Y2819000D1*
X706501D1*
X612751Y2725249D1*
X603680D1*
X587751D1*
X562749Y2750251D1*
X603680Y2725249D2*
Y2716178D1*
X562751Y2675249D1*
Y1619000D1*
X560861D1*
X494000D1*
X560861D2*
Y714639D1*
X587751Y687749D1*
Y612749D1*
X562751Y587749D1*
X1394000Y2769000D2*
X1494000D1*
X1519000Y2744000D1*
X1672110D1*
X2613475D1*
X2669567Y2687908D1*
X2676314Y2694655D1*
X2725249Y2743591D1*
Y2744000D1*
X2676314Y2694655D2*
Y1626314D1*
X2669000Y1619000D1*
X2794000D1*
X2669000D2*
Y644001D1*
X2725251Y587751D1*
X2669000Y644001D2*
X2569001D1*
X2519000Y594000D1*
X1719000D1*
X1644000Y519000D1*
X1672110Y2744000D2*
Y2815890D1*
X1669000Y2819000D1*
X1394000Y2669000D2*
X1569000D1*
X2569000D1*
X2619000Y2619000D1*
Y1719000D1*
Y819000D1*
X2469000Y669000D1*
X1669000D1*
X1569000Y2669000D2*
D3*
X644000Y1469000D2*
Y681500D1*
X637751Y687749D1*
Y525251D1*
X631503Y519003D1*
X644000Y1469000D2*
Y1573913D1*
X619000Y1598913D1*
Y2619000D1*
X594000D1*
X694000Y2719000D1*
X1344000D1*
X1394000Y2669000D1*
X2569000D2*
D3*
X2619000Y1719000D2*
D3*
X1694000Y1969000D2*
Y1994000D1*
X1644000Y2044000D1*
Y2094000D1*
X1669000Y2119000D1*
X1744000D1*
X1769000Y2094000D1*
Y2019000D1*
X1819000Y1969000D1*
X1694000Y2069000D2*
X1744000Y2019000D1*
Y1969000D1*
X1819000Y1894000D1*
X1894000D1*
X1919000Y1869000D1*
X1669000Y2169000D2*
X1619000Y2119000D1*
Y1919000D1*
X1669000Y1869000D1*
X1744000D1*
X1544000Y2269000D2*
Y1794000D1*
X1519000Y1769000D1*
X1394000Y969000D2*
X1669000D1*
X1394000Y1368999D2*
X1569001D1*
X1619000Y1319000D1*
Y1119000D1*
X1669000Y1069000D1*
X1869000Y1219000D2*
X1994000D1*
X2019000Y1244000D1*
X1969000Y1294000D2*
X1869000D1*
X1844000Y1269000D1*
X1719000D1*
X1594000Y1394000D1*
X1469000D1*
X1444000Y1419000D1*
X844001D1*
X794000Y1368999D1*
Y1869000D2*
X1169000D1*
X1319000Y1719000D1*
X2144000D1*
X2344000Y1519000D1*
X794000Y1769000D2*
X819000Y1794000D1*
X1119000D1*
X1294000Y1619000D1*
X1444000D1*
X1494000Y1669000D1*
X2094000D1*
X2244000Y1519000D1*
X2344000Y1419000D1*
X2119000Y1494000D2*
X1469000D1*
X1444000Y1519000D1*
X1294000D1*
X1094000Y1719000D1*
X844000D1*
X794000Y1669000D1*
X2344000Y1919000D2*
X2369000D1*
X2444000Y1844000D1*
Y1144000D1*
X2394000Y1094000D1*
X2294000D1*
X1944000Y1444000D1*
X1419000D1*
X1394000Y1469000D1*
X2044000Y1819000D2*
Y1994000D1*
X1994000Y2044000D1*
X1869000D1*
X1594000Y2319000D1*
X744000D1*
X694000Y2269000D1*
Y1669000D1*
X794000Y1569000D1*
D16*
X2569000Y2669000D3*
X2019000Y1244000D3*
X1869000Y1219000D3*
X1969000Y1294000D3*
X2044000Y1819000D3*
X2119000Y1494000D3*
X1994000Y2044000D3*
X2619000Y1719000D3*
D14*
X1644000Y1619000D3*
D15*
X1669000Y969000D3*
Y1069000D3*
D14*
X2344000Y2119000D3*
D15*
X1569000Y2669000D3*
X1694000Y1969000D3*
X1819000D3*
D14*
X2344000Y2019000D3*
D15*
X1694000Y2069000D3*
X1669000Y2169000D3*
X1919000Y1869000D3*
X1744000D3*
X1544000Y2269000D3*
D14*
X2344000Y1919000D3*
D15*
X1519000Y1769000D3*
D14*
X2344000Y1819000D3*
Y1719000D3*
Y1619000D3*
Y1519000D3*
Y1419000D3*
Y1318999D3*
Y1219000D3*
D15*
X2619000Y819000D3*
X1669000Y669000D3*
Y2819000D3*
X1569000D3*
X1769000D3*
X1644000Y519000D3*
X1544000D3*
X1744000D3*
D14*
X494000Y1619000D3*
Y1719000D3*
Y1519000D3*
X2794000Y1619000D3*
Y1719000D3*
Y1519000D3*
D15*
X562749Y2750251D3*
X631499Y2819000D3*
X494001Y2681500D3*
Y656500D3*
X562751Y587749D3*
X2656501Y2812749D3*
X631503Y519003D3*
X2725251Y587751D3*
X2794000Y656500D3*
X2656500Y519000D3*
X2725249Y2744000D3*
X2794003Y2675252D3*
D14*
X794000Y2769000D3*
Y2669000D3*
Y2569000D3*
Y2469000D3*
Y2369000D3*
Y2269000D3*
Y2169000D3*
Y2069000D3*
Y1969000D3*
Y1869000D3*
Y1769000D3*
Y1669000D3*
Y1569000D3*
Y1469000D3*
Y1368999D3*
Y1269000D3*
Y1169000D3*
Y1068999D3*
Y969000D3*
Y869000D3*
Y768999D3*
Y669000D3*
Y569000D3*
Y469000D3*
X1394000Y2769000D3*
Y2569000D3*
Y2469000D3*
Y2369000D3*
Y2269000D3*
Y2169000D3*
Y2069000D3*
Y1969000D3*
Y1869000D3*
Y1769000D3*
Y1669000D3*
Y1569000D3*
Y1469000D3*
Y1368999D3*
Y1269000D3*
Y1169000D3*
Y1068999D3*
Y969000D3*
Y869000D3*
Y768999D3*
Y669000D3*
Y569000D3*
Y469000D3*
Y2669000D3*
X894000Y969000D3*
X994000D3*
X1094000D3*
X1194000D3*
X1294000D3*
X794000Y2869000D3*
X1394000D3*
D15*
X619000Y2619000D3*
X644000Y1469000D3*
M02*
